<svg width="23" height="16" viewBox="0 0 23 16" fill="none" xmlns="http://www.w3.org/2000/svg">
<path d="M21.6155 6.0222C22.9339 4.63954 22.9097 2.45797 21.5615 1.10467C20.2129 -0.248546 18.0312 -0.280263 16.6439 1.03326L11.6548 6.0222L6.66994 1.03326C5.29213 -0.344422 3.05847 -0.344422 1.68082 1.03326C0.303007 2.41089 0.303007 4.64444 1.68082 6.0222L5.42815 9.76932C7.14771 8.05031 9.93509 8.05031 11.6548 9.76932C12.4807 8.9425 13.6016 8.47791 14.7704 8.47791C15.9392 8.47791 17.0597 8.9425 17.8857 9.76932L21.6155 6.0222Z" fill="#002D91"/>
<path d="M11.6549 9.76973C9.93516 8.05072 7.14778 8.05072 5.42822 9.76973L6.67002 11.029L11.6549 16.0004C11.4907 15.8296 11.3434 15.6439 11.2146 15.4456C11.3434 15.6439 11.4907 15.8296 11.6549 16.0004L16.644 11.029L17.8858 9.78737C17.0622 8.95819 15.9427 8.49039 14.774 8.48703C13.6051 8.48382 12.4831 8.9452 11.6549 9.76973H11.6549Z" fill="#E1007A"/>
</svg>
