<svg width="16" height="16" viewBox="0 0 16 16" fill="none" xmlns="http://www.w3.org/2000/svg">
<path d="M11.5951 7.56001L15.0204 4.13476C15.9663 3.18876 15.9663 1.65521 15.0204 0.709215C14.0746 -0.236405 12.5412 -0.236405 11.5951 0.709215L8.16991 4.13476L4.74453 0.709215C3.79873 -0.236405 2.26519 -0.236405 1.31921 0.709215C0.373415 1.65521 0.373415 3.18876 1.31921 4.13449L4.74446 7.56001L1.31921 10.9854C0.373415 11.9313 0.373415 13.4647 1.31921 14.4106C2.26519 15.3564 3.79873 15.3564 4.74453 14.4107L8.16991 10.9854L11.5951 14.4107C12.5409 15.3564 14.0746 15.3564 15.0204 14.4107C15.9663 13.4647 15.9663 11.9313 15.0204 10.9854L11.5951 7.56001Z" fill="#E1007A"/>
</svg>
