<svg width="32" height="31" viewBox="0 0 32 31" fill="none" xmlns="http://www.w3.org/2000/svg">
<path d="M14.7283 0.816984C15.0951 0.0737387 16.1549 0.07374 16.5217 0.816986L20.5722 9.0241C20.7178 9.31924 20.9994 9.52381 21.3251 9.57114L30.3822 10.8872C31.2024 11.0064 31.5299 12.0144 30.9364 12.5929L24.3827 18.9812C24.147 19.211 24.0394 19.542 24.0951 19.8664L25.6422 28.8869C25.7823 29.7038 24.9249 30.3267 24.1912 29.941L16.0903 25.6821C15.799 25.529 15.451 25.529 15.1597 25.6821L7.05875 29.941C6.32513 30.3267 5.4677 29.7038 5.60781 28.8869L7.15494 19.8664C7.21058 19.542 7.10303 19.211 6.86734 18.9812L0.313577 12.5929C-0.27994 12.0144 0.0475717 11.0064 0.867792 10.8872L9.92487 9.57114C10.2506 9.52381 10.5321 9.31924 10.6778 9.02409L14.7283 0.816984Z" fill="url(#paint0_linear)"/>
<defs>
<linearGradient id="paint0_linear" x1="15.625" y1="-1" x2="15.625" y2="34.25" gradientUnits="userSpaceOnUse">
<stop offset="0.302083" stop-color="#1ED7DC"/>
<stop offset="0.536458" stop-color="#E1007A"/>
<stop offset="1" stop-color="#002D91"/>
</linearGradient>
</defs>
</svg>
