<svg width="178" height="178" viewBox="0 0 178 178" fill="none" xmlns="http://www.w3.org/2000/svg">
<path opacity="0.35" d="M89 178C138.153 178 178 138.153 178 89C178 39.8467 138.153 0 89 0C39.8467 0 0 39.8467 0 89C0 138.153 39.8467 178 89 178Z" fill="white"/>
<path d="M88.8973 45.6981C101.283 45.6981 111.494 54.6799 113.574 66.4035C113.857 64.9853 114.046 63.5673 114.046 62.0545C114.046 48.2509 102.795 37 88.9918 37C75.1882 37 63.9373 48.2509 63.9373 62.0545C63.9373 63.5673 64.1263 64.9853 64.41 66.4035C66.3954 54.6799 76.6064 45.6981 88.8973 45.6981Z" fill="#1ED7DC"/>
<path d="M108.185 86.6363C111.777 82.2872 114.046 76.8035 114.046 70.7526C114.046 69.2399 113.857 67.8216 113.574 66.4034C111.966 75.7634 105.065 83.4217 96.1774 86.0689C93.9083 86.7308 91.45 87.109 88.9918 87.109C86.4391 87.109 84.0755 86.7308 81.8064 86.0689C78.6864 85.1235 75.85 83.6108 73.3918 81.6254C73.3918 81.6254 73.3919 81.6254 73.2973 81.6254C72.9191 81.3417 72.541 80.9634 72.1628 80.5853C71.9737 80.3962 71.69 80.2072 71.5009 80.0181C70.7446 79.2618 69.9883 78.4108 69.3264 77.5599C68.5701 76.5199 67.8137 75.4799 67.1519 74.3454C65.8282 71.8872 64.7882 69.2398 64.3155 66.4034C64.0319 67.8216 63.8428 69.2399 63.8428 70.7526C63.8428 76.8035 66.1118 82.2872 69.61 86.6363C57.5082 89.0945 48.3373 99.7781 48.3373 112.636V141H129.363V112.636C129.457 99.7781 120.286 89.0945 108.185 86.6363Z" fill="#E1007A"/>
<path d="M88.8973 45.6981C76.5118 45.6981 66.3009 54.6798 64.2209 66.4035C64.6937 69.2398 65.7337 71.8873 67.0573 74.3454C70.1773 79.9236 75.3773 84.2726 81.7119 86.069C83.9809 86.7308 86.4391 87.1091 88.8973 87.1091C91.45 87.1091 93.8136 86.7308 96.0827 86.069C105.065 83.3272 111.872 75.7635 113.479 66.4035C111.494 54.6798 101.283 45.6981 88.8973 45.6981Z" fill="#002D91"/>
</svg>
