<svg width="178" height="178" viewBox="0 0 178 178" fill="none" xmlns="http://www.w3.org/2000/svg">
<path opacity="0.35" d="M89 178C138.153 178 178 138.153 178 89C178 39.8467 138.153 0 89 0C39.8467 0 0 39.8467 0 89C0 138.153 39.8467 178 89 178Z" fill="white"/>
<path d="M70.0263 92.2292L48.6723 67.174C47.1538 65.3708 46.3946 63.0928 46.2997 60.8151V118.993C46.3946 117 47.1538 115.102 48.6723 113.583L70.0263 92.2292Z" fill="#002D91"/>
<path d="M108.083 92.2292L129.437 113.583C130.956 115.102 131.715 117 131.81 118.993V60.8151C131.715 63.0928 130.956 65.3708 129.437 67.174L108.083 92.2292Z" fill="#002D91"/>
<path d="M129.438 113.583L108.084 92.2292L94.702 107.984C91.5701 111.685 86.54 111.685 83.4081 107.984L70.0263 92.2292L48.6723 113.583C47.1538 115.102 46.3946 117 46.2997 118.993V119.467C46.2997 119.657 46.2997 119.847 46.2997 119.942C46.4895 121.745 47.2487 123.454 48.5774 124.782L49.1469 125.352C50.4756 126.396 52.2787 127.06 54.082 127.06H123.743C125.642 127.06 127.35 126.396 128.679 125.352L129.248 124.782C130.577 123.454 131.336 121.65 131.526 119.942C131.526 119.752 131.526 119.562 131.526 119.467V118.993C131.716 117 130.956 115.007 129.438 113.583Z" fill="#E1007A"/>
<path d="M131.715 60.6253C131.715 58.1578 130.956 55.6902 129.438 53.7921L128.868 53.1278C127.54 51.894 125.736 51.0399 123.933 51.0399H54.2716C52.3735 51.0399 50.6652 51.7991 49.3365 53.1278L48.7671 53.7921C47.1537 55.6902 46.3944 58.1578 46.4893 60.6253V60.7203C46.5842 62.9981 47.3435 65.2758 48.862 67.079L70.2159 92.1343L83.5978 107.889C86.7297 111.59 91.7597 111.59 94.8916 107.889L108.273 92.1343L129.627 67.079C131.146 65.2758 131.905 62.9981 132 60.7203L131.715 60.6253Z" fill="#1ED7DC"/>
</svg>
