<?xml version="1.0" encoding="UTF-8"?>
<svg width="21px" height="18px" viewBox="0 0 21 18" version="1.1" xmlns="http://www.w3.org/2000/svg" xmlns:xlink="http://www.w3.org/1999/xlink">
    <title>sporran_Group 2</title>
    <defs>
        <polygon id="path-1" points="0.143766559 0.111124547 5.44977308 0.111124547 5.44977308 10.2067255 0.143766559 10.2067255"></polygon>
        <polygon id="path-3" points="0.147090434 0.0554554229 11.9672589 0.0554554229 11.9672589 9.47005525 0.147090434 9.47005525"></polygon>
    </defs>
    <g id="MatchApp-MyProfil" stroke="none" stroke-width="1" fill="none" fill-rule="evenodd">
        <g id="ODXC-OwnProfil_upload_pic_blur-03b" transform="translate(-173.000000, -611.000000)">
            <g id="Group-2" transform="translate(173.000000, 611.000000)">
                <path d="M12.8914518,17.7371873 C12.3678842,17.7371873 11.8761581,17.4136439 11.6863916,16.8930681 L8.94567561,9.36267047 C8.70355232,8.69720539 9.0467562,7.96143267 9.71222128,7.71930938 C10.3766178,7.47675869 11.1132454,7.82017628 11.3555824,8.48564135 L14.0962984,16.016039 C14.3384216,16.6815041 13.9954315,17.4172768 13.3299664,17.6594001 C13.1852908,17.7121843 13.0371959,17.7371873 12.8914518,17.7371873" id="Fill-1" fill="#1ED7DC"></path>
                <g id="Group-5" transform="translate(5.983416, 0.000000)">
                    <mask id="mask-2" fill="white">
                        <use xlink:href="#path-1"></use>
                    </mask>
                    <g id="Clip-4"></g>
                    <path d="M4.16727736,10.2067255 C3.64370978,10.2067255 3.15198366,9.88318212 2.96243083,9.36260636 L0.22150114,1.83220871 C-0.0208358525,1.16674363 0.322368036,0.430970911 0.987833111,0.188847619 C1.65244338,-0.0534893732 2.38907091,0.289714516 2.6311942,0.95517959 L5.37212388,8.48557724 C5.61424718,9.15104232 5.27125699,9.88681504 4.60579191,10.1289383 C4.4611163,10.1817225 4.31302147,10.2067255 4.16727736,10.2067255" id="Fill-3" fill="#1ED7DC" mask="url(#mask-2)"></path>
                </g>
                <g id="Group-8" transform="translate(8.334127, 4.060320)">
                    <mask id="mask-4" fill="white">
                        <use xlink:href="#path-3"></use>
                    </mask>
                    <g id="Clip-7"></g>
                    <path d="M3.50112844,9.47005525 C7.56807315,8.55797916 11.967323,4.86372908 11.967323,4.86372908 C11.967323,4.86372908 6.24248553,0.0554554229 1.81652305,0.0554554229 C1.27521828,0.0554554229 0.714253024,0.128327481 0.147090434,0.254624803 L3.50112844,9.47005525 Z" id="Fill-6" fill="#1ED7DC" mask="url(#mask-4)"></path>
                </g>
                <path d="M8.49034278,4.31304284 C4.41677333,5.21550238 3.5289105e-13,8.92407043 3.5289105e-13,8.92407043 C3.5289105e-13,8.92407043 5.72483747,13.7323441 10.1507999,13.7323441 C10.6997979,13.7323441 11.2688838,13.6579761 11.8445945,13.5284733 L8.49034278,4.31304284 Z" id="Fill-9" fill="#E1007A"></path>
                <path d="M1.73933423,15.0066648 L1.74403565,15.0066648 C1.74104384,14.9733275 1.74040273,14.9399901 1.73933423,14.9066527 L1.73933423,15.0066648 Z" id="Fill-11" fill="#002D91"></path>
                <path d="M18.5476485,15.0066648 L18.5476485,14.9066527 C18.54658,14.9399901 18.5459389,14.9733275 18.5429471,15.0066648 L18.5476485,15.0066648 Z" id="Fill-13" fill="#002D91"></path>
                <path d="M1.73933423,14.9066955 L1.73933423,14.8081793 C1.73826572,14.8410893 1.73826572,14.8739992 1.73933423,14.9066955" id="Fill-15" fill="#E1007A"></path>
                <path d="M18.5476485,14.8081793 L18.5476485,14.9066955 C18.548717,14.8739992 18.548717,14.8410893 18.5476485,14.8081793" id="Fill-17" fill="#E1007A"></path>
                <path d="M9.76940768,4.12836239 C9.34521109,4.15357912 8.91139796,4.21875794 8.47373821,4.31641932 C8.06343219,4.40809707 7.65013435,4.52883816 7.23790502,4.67052196 L10.5316793,13.7199067 C10.9560896,13.6949037 11.3899028,13.6297248 11.8277762,13.5318498 C12.2378685,13.440172 12.6511664,13.3194309 13.063182,13.1779608 L9.76940768,4.12836239 Z" id="Fill-19" fill="#002D91"></path>
                <path d="M12.2877036,8.92411317 C12.2877036,10.1043841 11.3307503,11.0611237 10.1506931,11.0611237 C8.97042219,11.0611237 8.01368258,10.1043841 8.01368258,8.92411317 C8.01368258,7.74405596 8.97042219,6.78710266 10.1506931,6.78710266 C11.3307503,6.78710266 12.2877036,7.74405596 12.2877036,8.92411317" id="Fill-21" fill="#002D91"></path>
            </g>
        </g>
    </g>
</svg>