<?xml version="1.0" encoding="UTF-8"?>
<svg width="24px" height="24px" viewBox="0 0 24 24" version="1.1" xmlns="http://www.w3.org/2000/svg" xmlns:xlink="http://www.w3.org/1999/xlink">
    <title>odxc_Group Copy 2</title>
    <defs>
        <polygon id="path-1" points="0.10891406 0.0841852627 4.12861597 0.0841852627 4.12861597 7.73236781 0.10891406 7.73236781"></polygon>
        <polygon id="path-3" points="0.111432147 0.042011684 9.06610522 0.042011684 9.06610522 7.17428428 0.111432147 7.17428428"></polygon>
    </defs>
    <g id="MatchApp-MyProfil" stroke="none" stroke-width="1" fill="none" fill-rule="evenodd">
        <g id="ODXC-OwnProfil_upload_pic_08b" transform="translate(-215.000000, -73.000000)">
            <g id="Group-Copy-2" transform="translate(215.000000, 73.000000)">
                <g id="nav/icon_button-copy-5" fill="#FFFFFF">
                    <circle id="Oval" cx="12" cy="12" r="12"></circle>
                </g>
                <g id="blur-icon" transform="translate(4.080000, 5.520000)">
                    <path d="M9.76641328,13.5149564 C9.36977117,13.5149564 8.99725138,13.2698477 8.85348886,12.8754722 L6.77718887,7.17062546 C6.59376213,6.66648525 6.85376508,6.10908167 7.35790529,5.92565494 C7.86123602,5.74190441 8.41928718,6.00206925 8.60287581,6.50620946 L10.6791758,12.2110562 C10.8626025,12.7151964 10.6027615,13.2726 10.0986213,13.4560267 C9.98901854,13.4960147 9.87682549,13.5149564 9.76641328,13.5149564" id="Fill-1" fill="#1ED7DC"></path>
                    <g id="Group-5" transform="translate(4.533053, 0.077693)">
                        <mask id="mask-2" fill="white">
                            <use xlink:href="#path-1"></use>
                        </mask>
                        <g id="Clip-4"></g>
                        <path d="M3.1570283,7.73236781 C2.7603862,7.73236781 2.38786641,7.48725918 2.24426578,7.09288361 L0.167803894,1.3880369 C-0.0157847368,0.88389669 0.244218209,0.326493114 0.748358417,0.143066378 C1.25185105,-0.0405222524 1.8099022,0.219480694 1.99332894,0.723620901 L4.06979082,6.42846761 C4.25321756,6.93260782 3.99337651,7.49001139 3.4892363,7.67343813 C3.37963356,7.71342613 3.26744051,7.73236781 3.1570283,7.73236781" id="Fill-3" fill="#1ED7DC" mask="url(#mask-2)"></path>
                    </g>
                    <g id="Group-8" transform="translate(6.313895, 3.153693)">
                        <mask id="mask-4" fill="white">
                            <use xlink:href="#path-3"></use>
                        </mask>
                        <g id="Clip-7"></g>
                        <path d="M2.65237003,7.17428428 C5.73338875,6.48331755 9.06615378,3.68464324 9.06615378,3.68464324 C9.06615378,3.68464324 4.7291557,0.042011684 1.37615382,0.042011684 C0.966074458,0.042011684 0.541100776,0.097217789 0.111432147,0.192897578 L2.65237003,7.17428428 Z" id="Fill-6" fill="#1ED7DC" mask="url(#mask-4)"></path>
                    </g>
                    <path d="M6.43223976,3.34514998 C3.3462023,4.02883145 0.000161894736,6.8383527 0.000161894736,6.8383527 C0.000161894736,6.8383527 4.33715998,10.4809843 7.69016185,10.4809843 C8.10606943,10.4809843 8.53719511,10.4246449 8.97333953,10.3265367 L6.43223976,3.34514998 Z" id="Fill-9" fill="#E1007A"></path>
                    <path d="M1.31783934,11.4463788 L1.32140102,11.4463788 C1.3191345,11.4211232 1.31864881,11.3958676 1.31783934,11.370612 L1.31783934,11.4463788 Z" id="Fill-11" fill="#002D91"></path>
                    <path d="M14.0514108,11.4463788 L14.0514108,11.370612 C14.0506013,11.3958676 14.0501156,11.4211232 14.0478491,11.4463788 L14.0514108,11.4463788 Z" id="Fill-13" fill="#002D91"></path>
                    <path d="M1.31783934,11.3706444 L1.31783934,11.2960109 C1.31702987,11.3209427 1.31702987,11.3458745 1.31783934,11.3706444" id="Fill-15" fill="#E1007A"></path>
                    <path d="M14.0514108,11.2960109 L14.0514108,11.3706444 C14.0522202,11.3458745 14.0522202,11.3209427 14.0514108,11.2960109" id="Fill-17" fill="#E1007A"></path>
                    <path d="M7.40122832,3.20524055 C7.07986727,3.22434413 6.75122095,3.27372203 6.41966054,3.34770792 C6.10882264,3.41716076 5.79571822,3.50863129 5.48342328,3.6159675 L7.97870684,10.471562 C8.30022979,10.4526203 8.6288761,10.4032424 8.96059842,10.3290946 C9.27127441,10.2596418 9.58437883,10.1681713 9.89651189,10.0609969 L7.40122832,3.20524055 Z" id="Fill-19" fill="#002D91"></path>
                    <path d="M9.30902827,6.83838508 C9.30902827,7.73252971 8.58406364,8.45733244 7.69008091,8.45733244 C6.79593628,8.45733244 6.07113355,7.73252971 6.07113355,6.83838508 C6.07113355,5.94440235 6.79593628,5.21943772 7.69008091,5.21943772 C8.58406364,5.21943772 9.30902827,5.94440235 9.30902827,6.83838508" id="Fill-21" fill="#002D91"></path>
                </g>
            </g>
        </g>
    </g>
</svg>