<?xml version="1.0" encoding="UTF-8"?>
<svg width="52px" height="34px" viewBox="0 0 52 34" version="1.1" xmlns="http://www.w3.org/2000/svg" xmlns:xlink="http://www.w3.org/1999/xlink">
    <title>matchapp_Group 9</title>
    <defs>
        <polygon id="path-1" points="0 0.0559145455 34.5714571 0.0559145455 34.5714571 19.4726964 0 19.4726964"></polygon>
        <polygon id="path-3" points="0.261578571 0 34.8335 0 34.8335 19.4169055 0.261578571 19.4169055"></polygon>
    </defs>
    <g id="Symbols" stroke="none" stroke-width="1" fill="none" fill-rule="evenodd">
        <g id="Group-9" transform="translate(0.000000, 0.000000)">
            <g id="Group-3" transform="translate(0.000000, 14.527273)">
                <mask id="mask-2" fill="white">
                    <use xlink:href="#path-1"></use>
                </mask>
                <g id="Clip-2"></g>
                <path d="M23.4199333,11.8937873 C22.6173381,11.8937873 21.966719,11.2440782 21.966719,10.4429145 C21.966719,9.64144182 22.6173381,8.99204182 23.4199333,8.99204182 C24.222219,8.99204182 24.8725286,9.64144182 24.8725286,10.4429145 C24.8725286,11.2440782 24.222219,11.8937873 23.4199333,11.8937873 L23.4199333,11.8937873 Z M17.285481,11.8937873 C16.4835048,11.8937873 15.8328857,11.2440782 15.8328857,10.4429145 C15.8328857,9.64144182 16.4835048,8.99204182 17.285481,8.99204182 C18.0880762,8.99204182 18.7386952,9.64144182 18.7386952,10.4429145 C18.7386952,11.2440782 18.0880762,11.8937873 17.285481,11.8937873 L17.285481,11.8937873 Z M11.1516476,11.8937873 C10.3493619,11.8937873 9.69874286,11.2440782 9.69874286,10.4429145 C9.69874286,9.64144182 10.3493619,8.99204182 11.1516476,8.99204182 C11.9539333,8.99204182 12.6042429,9.64144182 12.6042429,10.4429145 C12.6042429,11.2440782 11.9539333,11.8937873 11.1516476,11.8937873 L11.1516476,11.8937873 Z M17.285481,4.88978727 L17.285481,0.0559145455 L16.8428619,0.0559145455 L9.72195714,0.0559145455 C4.35264762,0.0559145455 -0.000185714286,4.40266 -0.000185714286,9.76415091 L-0.000185714286,9.76446 C-0.000185714286,15.12626 4.35264762,19.4726964 9.72164762,19.4726964 L16.8428619,19.4726964 L16.8428619,19.4726964 L20.2315286,19.4726964 L20.2318381,19.4726964 L34.5714571,19.4726964 L34.5714571,9.76415091 C34.5714571,7.97853273 34.0542429,6.32706 33.2120286,4.88978727 L31.6254095,4.88978727 L17.285481,4.88978727 Z" id="Fill-1" fill="#E1007A" mask="url(#mask-2)"></path>
            </g>
            <g id="Group-6" transform="translate(17.023810, 0.000000)">
                <mask id="mask-4" fill="white">
                    <use xlink:href="#path-3"></use>
                </mask>
                <g id="Clip-5"></g>
                <path d="M23.6820071,11.1592327 C22.8794119,11.1592327 22.2287929,10.5098327 22.2287929,9.70836 C22.2287929,8.90719636 22.8794119,8.25779636 23.6820071,8.25779636 C24.4842929,8.25779636 25.1346024,8.90719636 25.1346024,9.70836 C25.1346024,10.5098327 24.4842929,11.1592327 23.6820071,11.1592327 M17.5475548,11.1592327 C16.745269,11.1592327 16.0949595,10.5098327 16.0949595,9.70836 C16.0949595,8.90719636 16.745269,8.25779636 17.5475548,8.25779636 C18.35015,8.25779636 19.000769,8.90719636 19.000769,9.70836 C19.000769,10.5098327 18.35015,11.1592327 17.5475548,11.1592327 M11.4137214,11.1592327 C10.6111262,11.1592327 9.96081667,10.5098327 9.96081667,9.70836 C9.96081667,8.90719636 10.6111262,8.25779636 11.4137214,8.25779636 C12.2160071,8.25779636 12.8663167,8.90719636 12.8663167,9.70836 C12.8663167,10.5098327 12.2160071,11.1592327 11.4137214,11.1592327 M25.1113881,0.000123636364 L17.9907929,-0.000185454545 L9.98372143,-0.000185454545 C4.61472143,0.000123636364 0.261578571,4.34656 0.261578571,9.70836 L0.261578571,9.70836 L0.261578571,14.5830327 L7.82572143,14.5830327 C11.4069119,14.5833418 14.501531,16.5383418 16.1881262,19.4169055 L17.9907929,19.4169055 L17.9907929,19.4165964 L25.1113881,19.4165964 C30.4806976,19.4165964 34.833531,15.07016 34.833531,9.70866909 L34.833531,9.70836 C34.833531,4.34656 30.4806976,-0.000185454545 25.1113881,0.000123636364" id="Fill-4" fill="#1ED7DC" mask="url(#mask-4)"></path>
            </g>
            <path d="M24.8496857,14.5830945 L17.2855429,14.5830945 L17.2855429,19.4169673 L31.6254714,19.4169673 L33.2120905,19.4169673 C31.5251857,16.5384036 28.4305667,14.5830945 24.8496857,14.5830945" id="Fill-7" fill="#002D91"></path>
        </g>
    </g>
</svg>