<?xml version="1.0" encoding="UTF-8"?>
<svg width="230px" height="74px" viewBox="0 0 230 74" version="1.1" xmlns="http://www.w3.org/2000/svg" xmlns:xlink="http://www.w3.org/1999/xlink">
    <title>matchapp_Fill 1</title>
    <g id="Symbols" stroke="none" stroke-width="1" fill="none" fill-rule="evenodd">
        <g id="elements/match/match_bar_profil" fill="#D7D7D7">
            <path d="M193.354449,66.2476895 C177.500651,66.2476895 164.648476,53.389661 164.648476,37.5286419 C164.648476,21.6676229 177.500651,8.80959429 193.354449,8.80959429 C209.208247,8.80959429 222.060421,21.6676229 222.060421,37.5286419 C222.060421,53.389661 209.208247,66.2476895 193.354449,66.2476895 M114.912121,61.9282038 C101.442504,61.9282038 90.5233155,51.0040419 90.5233155,37.5286419 C90.5233155,24.0528895 101.442504,13.12908 114.912121,13.12908 C128.381386,13.12908 139.300574,24.0528895 139.300574,37.5286419 C139.300574,51.0040419 128.381386,61.9282038 114.912121,61.9282038 M36.469441,66.2476895 C20.6156432,66.2476895 7.76346861,53.389661 7.76346861,37.5286419 C7.76346861,21.6676229 20.6156432,8.80959429 36.469441,8.80959429 C52.3232389,8.80959429 65.1754135,21.6676229 65.1754135,37.5286419 C65.1754135,53.389661 52.3232389,66.2476895 36.469441,66.2476895 M192.840911,7.04761905e-05 L36.9833308,7.04761905e-05 C16.5580628,7.04761905e-05 0.00017611026,16.565499 0.00017611026,37.0000705 L0.00017611026,37.0000705 C0.00017611026,57.4346419 16.5580628,74.0000705 36.9833308,74.0000705 L192.840911,74.0000705 C213.265827,74.0000705 229.824066,57.4346419 229.824066,37.0000705 L229.824066,37.0000705 C229.824066,16.565499 213.265827,7.04761905e-05 192.840911,7.04761905e-05" id="Fill-1"></path>
        </g>
    </g>
</svg>