<?xml version="1.0" encoding="UTF-8"?>
<svg width="21px" height="21px" viewBox="0 0 21 21" version="1.1" xmlns="http://www.w3.org/2000/svg" xmlns:xlink="http://www.w3.org/1999/xlink">
    <title>odxc_Fill 3 Copy</title>
    <g id="Symbols" stroke="none" stroke-width="1" fill="none" fill-rule="evenodd">
        <g id="icon/send_line" fill="#03DAC5">
            <path d="M12.3540817,18.6250221 L10.3066109,12.0947496 L17.9842941,4.37715487 L12.3540817,18.6250221 Z M2.37913902,8.78078051 L16.4443728,3.11649995 L8.89889174,10.7014293 L2.37913902,8.78078051 Z M18.5549551,0.128861123 L1.11823718,7.15046237 C0.403083949,7.43845969 -0.0347107368,8.1234533 0.00215968053,8.89544611 C0.0390300979,9.66743892 0.540932807,10.3070996 1.28000198,10.5247643 L8.39898203,12.6220781 L10.6337944,19.7486783 C10.8626567,20.4800048 11.5044012,20.9706669 12.2683829,20.9986667 C12.2909701,20.9996667 12.3135574,21 12.3361447,21 C13.0715601,21 13.7156298,20.5623374 13.9890023,19.8710105 L20.8741376,2.44717286 C21.1368808,1.78217905 20.9807628,1.02651943 20.4758706,0.521524131 C19.9709784,0.016528836 19.2169618,-0.137469729 18.5549551,0.128861123 Z" id="Fill-3-Copy"></path>
        </g>
    </g>
</svg>