<?xml version="1.0" encoding="UTF-8"?>
<svg width="36px" height="36px" viewBox="0 0 36 36" version="1.1" xmlns="http://www.w3.org/2000/svg" xmlns:xlink="http://www.w3.org/1999/xlink">
    <title>odxc_icon/secret_message_repley_white</title>
    <g id="MatchApp-Secret-Message" stroke="none" stroke-width="1" fill="none" fill-rule="evenodd">
        <g id="MatchApp_secret_message_txt_messaage-Emoji" transform="translate(-309.000000, -594.000000)">
            <g id="Group-17" transform="translate(309.000000, 594.000000)">
                <path d="M36,18 C36,27.9411713 27.9411713,36 18,36 C8.05882873,36 0,27.9411713 0,18 C0,8.05882873 8.05882873,0 18,0 C27.9411713,0 36,8.05882873 36,18" id="Fill-1" fill-opacity="0.35" fill="#FFFFFF"></path>
                <g id="Group" transform="translate(17.443745, 17.601805) scale(-1, 1) translate(-17.443745, -17.601805) translate(8.443745, 9.726805)">
                    <path d="M17.4309,6.98361298 L10.6302812,0.182994199 C10.2394524,-0.20783453 9.57156295,0.0688284533 9.57156295,0.62135884 L9.57156295,3.33627597 L9.57156295,4.49265166 C9.97631433,4.36555774 10.3935961,4.25019862 10.8269884,4.15035332 C11.3474966,4.03061851 11.8453309,4.42184503 11.8453309,4.95587818 L11.8453309,10.0489831 C11.8453309,10.483171 11.5068116,10.8433699 11.0734193,10.8672373 C10.5598723,10.8956793 10.0592536,10.9406296 9.57156295,11.0016903 L9.57156295,11.4877898 L9.57156295,14.2227953 C9.57156295,14.7753257 10.2394524,15.0519887 10.6302812,14.6613588 L17.4309,7.86074006 C17.6731541,7.61848591 17.6731541,7.22586713 17.4309,6.98361298" id="Fill-3" fill="#FFFFFF" opacity="0.35"></path>
                    <path d="M9.57154306,4.49267155 C4.33702372,6.13574337 1.4617972,9.98714669 0.0351231666,14.2216218 C-0.172921032,14.8385942 0.591631454,15.3225058 1.05684692,14.8668373 C3.26478063,12.7042517 6.09346571,11.4368925 9.57154306,11.0017102 L9.57154306,4.49267155 Z" id="Fill-9" fill="#FFFFFF"></path>
                    <path d="M10.8269685,4.15043287 C10.3935762,4.25007928 9.97629444,4.36563729 9.57154306,4.49273122 L9.57154306,11.001571 C10.0594326,10.9407091 10.5598524,10.8957588 11.0733994,10.8673169 C11.5067917,10.8432506 11.845311,10.4830517 11.845311,10.0490627 L11.8455099,4.95595774 C11.8455099,4.42172569 11.3474768,4.03049917 10.8269685,4.15043287" id="Fill-15" fill="#000000" opacity="0"></path>
                </g>
                <path d="M19.3938166,14.7850409 C19.4483138,14.7701238 19.5038055,14.7560022 19.5588994,14.7416818 C19.5036066,14.7560022 19.4485127,14.7703227 19.3938166,14.7850409" id="Fill-5" fill="#FFFFFF"></path>
                <path d="M18.7654674,14.9693768 C18.8619315,14.9391448 18.9593901,14.9095094 19.0572464,14.8806696 C18.9591912,14.9095094 18.8619315,14.9391448 18.7654674,14.9693768" id="Fill-7" fill="#FFFFFF"></path>
                <path d="M20.2670851,21.3441215 C20.1384,21.3512818 20.0103116,21.3594365 19.8830188,21.3687845 C20.0103116,21.3594365 20.1384,21.3512818 20.2670851,21.3441215" id="Fill-11" fill="#FFFFFF"></path>
                <path d="M19.5121989,21.3985989 C19.5104088,21.3987978 19.5084199,21.3987978 19.5064309,21.3989967 C19.5084199,21.3987978 19.5104088,21.3987978 19.5121989,21.3985989" id="Fill-13" fill="#FFFFFF"></path>
            </g>
        </g>
    </g>
</svg>