<?xml version="1.0" encoding="UTF-8"?>
<svg width="20px" height="21px" viewBox="0 0 20 21" version="1.1" xmlns="http://www.w3.org/2000/svg" xmlns:xlink="http://www.w3.org/1999/xlink">
    <title>odxc_icon/attach_line_pa</title>
    <g id="icon/attach_line_pa" stroke="none" stroke-width="1" fill="none" fill-rule="evenodd">
        <path d="M6.95753898,21 C5.09815012,21 3.35017376,20.2960014 2.03550631,19.0176706 C-0.678502102,16.3786758 -0.678502102,12.0846844 2.03550631,9.44568959 L10.1528494,1.55237192 C12.2820279,-0.51762397 15.7464423,-0.517290638 17.875278,1.55237192 C20.0041137,3.62303448 20.0041137,6.99136113 17.875278,9.06135702 L9.75964896,16.9526747 C9.00512926,17.6866732 8.00173118,18.0903391 6.93491368,18.0903391 C5.86775337,18.0903391 4.86469809,17.6866732 4.11017839,16.9526747 C2.5528031,15.4383444 2.5528031,12.9740159 4.11017839,11.4600189 L9.44906521,6.2686959 C9.850493,5.87769667 10.5021704,5.87803001 10.9035982,6.26836256 C11.3053688,6.65902846 11.3053688,7.2920272 10.903941,7.68269309 L5.56505419,12.8743495 C4.80916325,13.6086813 4.80916325,14.803679 5.56505419,15.5383442 C5.93082998,15.8943435 6.41727408,16.0903431 6.93491368,16.0903431 C7.45221047,16.0903431 7.93865457,15.8943435 8.30511598,15.5386775 L16.4204022,7.6470265 C17.7477535,6.35669572 17.7474107,4.25703322 16.4204022,2.96670245 C15.0937365,1.67703834 12.9347337,1.67670501 11.6073824,2.96670245 L3.49003929,10.8600201 C1.57820086,12.7193498 1.57820086,15.7440104 3.49003929,17.6033401 C4.41630565,18.5036716 5.64767084,19 6.95753898,19 C8.26740713,19 9.49877232,18.5036716 10.4246959,17.6033401 L18.2441391,10.0000218 C18.6459097,9.60968927 19.2972443,9.60968927 19.698672,10.0003552 C20.1004427,10.3906877 20.1004427,11.0240198 19.698672,11.4146857 L11.8792289,19.0176706 C10.5645614,20.2960014 8.81692784,21 6.95753898,21" id="Fill-1-Copy" fill="#E1007A"></path>
    </g>
</svg>