<svg xmlns="http://www.w3.org/2000/svg" viewBox="0 0 163 163">
    <g>
        <path fill="#f0f0f0" d="M81.5,0A81.5,81.5,0,1,0,163,81.5,81.5,81.5,0,0,0,81.5,0Zm36.92,108.59a5.27,5.27,0,0,1-7.9,4.57L91.61,102.24V58.3l18.91-10.91a5.26,5.26,0,0,1,7.9,4.56Z"/>
        <path fill="#e1007a" d="M61.46,75.71,91.61,58.3V52a5.26,5.26,0,0,0-7.9-4.56l-49,28.32a5.26,5.26,0,0,0,0,9.12l49.05,28.33a5.27,5.27,0,0,0,7.9-4.57v-6.35L61.46,84.83A5.27,5.27,0,0,1,61.46,75.71Z"/>
        <path fill="#002d91" d="M61.46,75.71a5.27,5.27,0,0,0,0,9.12l30.15,17.41V58.3Z"/>
        <path fill="#1ed7dc" d="M110.52,47.39,91.61,58.3v43.94l18.91,10.92a5.27,5.27,0,0,0,7.9-4.57V52A5.26,5.26,0,0,0,110.52,47.39Z"/>
    </g>
</svg>
