<svg width="39" height="29" viewBox="0 0 39 29" fill="none" xmlns="http://www.w3.org/2000/svg">
<path d="M36.4158 10.7968C38.7981 8.41412 38.7981 4.55096 36.4158 2.16815C34.0337 -0.21466 30.1711 -0.21466 27.7886 2.16815L19.1614 10.7968L10.5339 2.16815C8.15186 -0.21466 4.28906 -0.21466 1.90674 2.16815C-0.475585 4.55096 -0.475585 8.41412 1.90674 10.7968L8.43628 17.2685C9.86255 15.8419 11.7974 15.0401 13.8147 15.0401C15.8323 15.0401 17.7666 15.8419 19.1934 17.2685C20.6189 15.842 22.5527 15.0403 24.5693 15.0403C26.5859 15.0403 28.5198 15.842 29.9453 17.2685L36.4158 10.7968Z" fill="#9B9B9B"/>
<path d="M19.1941 17.2689C17.7673 15.8423 15.833 15.0405 13.8154 15.0405C11.7981 15.0405 9.86328 15.8423 8.43701 17.2689L10.5803 19.4124L19.2073 28.0414C18.9148 27.7513 18.6531 27.4318 18.4265 27.0876C18.6531 27.4318 18.9148 27.7513 19.2073 28.0414L27.835 19.4124L29.978 17.2689C28.5508 15.8325 26.6104 15.025 24.5862 15.025C22.5615 15.025 20.6206 15.8325 19.1941 17.2689Z" fill="#E1007A"/>
</svg>
