<?xml version="1.0" encoding="UTF-8"?>
<svg width="72px" height="72px" viewBox="0 0 72 72" version="1.1" xmlns="http://www.w3.org/2000/svg" xmlns:xlink="http://www.w3.org/1999/xlink">
    <title>odxc_Group 4</title>
    <g id="MatchApp-Video-Call" stroke="none" stroke-width="1" fill="none" fill-rule="evenodd">
        <g id="MatchApp-Video-make-Call-" transform="translate(-273.000000, -546.000000)" fill="#FFFFFF">
            <g id="Group-4" transform="translate(273.000000, 546.000000)">
                <circle id="Oval" fill-opacity="0.33" cx="36" cy="36" r="36"></circle>
                <g id="Group" transform="translate(18.000000, 18.000000)" fill-rule="nonzero">
                    <g id="mic_mute" transform="translate(1.200000, 0.000000)">
                        <path d="M31.8,34.5000089 C31.4017729,34.5013744 31.0194771,34.3437044 30.738,34.062 L0.738,4.062 C0.151473611,3.47547359 0.151473618,2.52452641 0.738000016,1.93800002 C1.32452641,1.35147362 2.27547359,1.35147361 2.862,1.938 L32.862,31.938 C33.4430087,32.5268012 33.4430087,33.4731988 32.862,34.062 C32.5805229,34.3437044 32.1982271,34.5013744 31.8,34.5000089 Z" id="Path"></path>
                        <path d="M11.7,9.084 L11.7,8.4 C11.7,5.58334778 13.9833478,3.3 16.8,3.3 C19.6166522,3.3 21.9,5.58334778 21.9,8.4 L21.9,18 C21.8992776,18.3857509 21.8549971,18.7701865 21.768,19.146 L24.102,21.486 C24.6243945,20.3979654 24.8970387,19.206941 24.9,18 L24.9,8.4 C24.8541277,4.36442426 21.8423676,0.979270545 17.8395353,0.464189098 C13.8367029,-0.0508923495 10.0660504,2.46150563 9,6.354 L11.7,9.084 Z" id="Path"></path>
                        <path d="M17.946,22.968 C16.4316726,23.3195721 14.8396941,22.960397 13.6230214,21.9926688 C12.4063486,21.0249406 11.6981775,19.5546019 11.7,18 L11.7,16.716 L8.69997733,13.716 L8.69997733,18 C8.69342205,20.7825685 10.11872,23.3728386 12.4727758,24.8564667 C14.8268316,26.3400948 17.7785502,26.5084106 20.286,25.302 L17.946,22.968 Z" id="Path"></path>
                        <path d="M27.954,25.338 C29.2927842,23.2349233 30.0026571,20.7930439 30.0000074,18.3 C30.0000074,17.4715729 29.3284271,16.8 28.5,16.8 C27.6715729,16.8 27,17.4715729 27,18.3 C27.0122175,19.9928924 26.5996294,21.6618114 25.8,23.154 L27.954,25.338 Z" id="Path"></path>
                        <path d="M22.026,27.042 C18.8767938,28.9208523 14.9613963,28.9646003 11.7709955,27.1565824 C8.58059469,25.3485645 6.60629008,21.9670896 6.6,18.3 C6.6,17.4715729 5.92842712,16.8 5.1,16.8 C4.27157288,16.8 3.6,17.4715729 3.6,18.3 C3.60228475,25.0080751 8.63537668,30.6477191 15.3,31.41 L15.3,34.2 C15.3,35.0284271 15.9715729,35.7 16.8,35.7 C17.6284271,35.7 18.3,35.0284271 18.3,34.2 L18.3,31.41 C20.4150308,31.1672835 22.439248,30.4136075 24.198,29.214 L22.026,27.042 Z" id="Path"></path>
                    </g>
                </g>
            </g>
        </g>
    </g>
</svg>