<?xml version="1.0" encoding="UTF-8"?>
<svg width="72px" height="72px" viewBox="0 0 72 72" version="1.1" xmlns="http://www.w3.org/2000/svg" xmlns:xlink="http://www.w3.org/1999/xlink">
    <title>odxc_Group 4</title>
    <g id="MatchApp-Video-Call" stroke="none" stroke-width="1" fill="none" fill-rule="evenodd">
        <g transform="translate(-280.000000, -542.000000)" fill="#FFFFFF" id="Group-4">
            <g transform="translate(280.000000, 542.000000)">
                <circle id="Oval" fill-opacity="0.33" cx="36" cy="36" r="36"></circle>
                <g id="Group" transform="translate(18.000000, 18.000000)" fill-rule="nonzero">
                    <g id="mic_unmute" transform="translate(4.800000, 0.000000)">
                        <path d="M13.2,3.3 C16.0152816,3.30330626 18.2966937,5.58471841 18.3,8.4 L18.3,18 C18.3,20.8166522 16.0166522,23.1 13.2,23.1 C10.3833478,23.1 8.1,20.8166522 8.1,18 L8.1,8.4 C8.10330626,5.58471841 10.3847184,3.30330626 13.2,3.3 M13.2,0.3 C8.72923379,0.306608682 5.10660868,3.92923379 5.1,8.4 L5.1,18 C5.1,22.4735064 8.72649357,26.0999999 13.2,26.0999999 C17.6735064,26.0999999 21.3,22.4735064 21.3,18 L21.3,8.4 C21.2933913,3.92923379 17.6707662,0.306608682 13.2,0.3 Z" id="Shape"></path>
                        <path d="M26.4,18.3 C26.4,17.4715729 25.7284271,16.8 24.9,16.8 C24.0715729,16.8 23.4,17.4715729 23.4,18.3 C23.4,23.9333044 18.8333044,28.5 13.2,28.5 C7.56669555,28.5 3,23.9333044 3,18.3 C3,17.4715729 2.32842712,16.8 1.5,16.8 C0.671572875,16.8 0,17.4715729 0,18.3 C0.00228475231,25.0080751 5.03537668,30.6477191 11.7,31.41 L11.7,34.2 C11.7,35.0284271 12.3715729,35.7 13.2,35.7 C14.0284271,35.7 14.7,35.0284271 14.7,34.2 L14.7,31.41 C21.3646233,30.6477191 26.3977152,25.0080751 26.4,18.3 Z" id="Path"></path>
                    </g>
                </g>
            </g>
        </g>
    </g>
</svg>