<?xml version="1.0" encoding="UTF-8"?>
<svg width="60px" height="60px" viewBox="0 0 60 60" version="1.1" xmlns="http://www.w3.org/2000/svg" xmlns:xlink="http://www.w3.org/1999/xlink">
    <title>odxc_icon/refresh location</title>
    <defs>
        <polygon id="path-1" points="0 0 29.5994779 0 29.5994779 15.0003564 0 15.0003564"></polygon>
        <polygon id="path-3" points="0 -3.16575312e-15 12.5942893 -3.16575312e-15 12.5942893 8.86001129 0 8.86001129"></polygon>
    </defs>
    <g id="MatchApp-Onboarding" stroke="none" stroke-width="1" fill="none" fill-rule="evenodd">
        <g id="MatchApp-Onboarding-GPS-Ortungsdienst-v4" transform="translate(-158.000000, -537.000000)">
            <g id="icon/refresh-location" transform="translate(158.000000, 537.000000)">
                <g id="Group-17">
                    <path d="M60,30 C60,46.5686188 46.5686188,60 30,60 C13.4313812,60 0,46.5686188 0,30 C0,13.4313812 13.4313812,0 30,0 C46.5686188,0 60,13.4313812 60,30" id="Fill-1" fill="#D7D7D7"></path>
                    <path d="M32.3230276,24.6417348 C32.4138564,24.6168729 32.5063425,24.593337 32.5981657,24.5694696 C32.506011,24.593337 32.4141878,24.6172044 32.3230276,24.6417348" id="Fill-5" fill="#FFFFFF"></path>
                    <path d="M31.275779,24.9489613 C31.4365525,24.8985746 31.5989834,24.8491823 31.7620773,24.801116 C31.5986519,24.8491823 31.4365525,24.8985746 31.275779,24.9489613" id="Fill-7" fill="#FFFFFF"></path>
                    <path d="M33.7784751,35.5735359 C33.564,35.5854696 33.3505193,35.5990608 33.1383646,35.6146409 C33.3505193,35.5990608 33.564,35.5854696 33.7784751,35.5735359" id="Fill-11" fill="#FFFFFF"></path>
                    <path d="M32.5203315,35.6643315 C32.5173481,35.664663 32.5140331,35.664663 32.5107182,35.6649945 C32.5140331,35.664663 32.5173481,35.664663 32.5203315,35.6643315" id="Fill-13" fill="#FFFFFF"></path>
                </g>
                <g id="Group-11" transform="translate(12.500000, 15.000000)">
                    <g id="Group" transform="translate(0.000000, 0.000000)">
                        <path d="M5.39323938,15.0004455 C5.30543427,15.0004455 5.21671453,14.994208 5.12708014,14.9817329 C4.64689596,14.9131197 4.21884607,14.6662904 3.92616238,14.2849081 C3.63347869,13.9035257 3.51091739,13.4339264 3.58225904,12.9625449 C4.67890824,5.57281611 11.2862426,3.33066907e-14 18.9518113,3.33066907e-14 C19.0944946,3.33066907e-14 19.2380926,0.00178216057 19.3816905,0.00534648172 C25.2225594,0.152374729 30.4332438,3.46095583 32.9795919,8.6381323 C33.2137388,9.11486025 33.2219705,9.66465679 33.0006285,10.1467312 C32.7802011,10.6252413 32.357639,10.9834556 31.841784,11.1287017 C31.6771494,11.175929 31.5079417,11.198206 31.3387339,11.198206 C30.639037,11.198206 29.9869011,10.7927644 29.677754,10.1654439 C27.7286635,6.20904744 23.7454214,3.68105266 19.284739,3.56788547 L18.9792504,3.56521223 C13.10454,3.56521223 8.04111214,7.82457599 7.20239044,13.4731339 C7.07342669,14.3437194 6.295071,15.0004455 5.39323938,15.0004455" id="Fill-1" fill="#E1007A"></path>
                        <path d="M5.37714177,15.6634984 C4.71037174,15.6634984 4.09665063,15.3106306 3.7756132,14.7412303 L0.250604003,9.50346036 C-0.270738821,8.58386551 0.0521278754,7.49852972 0.933837494,7.02447501 C1.20456991,6.87922892 1.50914387,6.80259601 1.81646175,6.80259601 C2.48506105,6.80259601 3.0996968,7.15635489 3.42073423,7.72664627 L5.90214314,11.3052247 L9.72715313,8.27555173 L9.76831177,8.2497104 C10.0655686,8.06169246 10.4103866,7.96100039 10.764351,7.96100039 C11.3872184,7.96100039 11.9616102,8.26574984 12.3000257,8.77544777 C12.8488076,9.59791487 12.6073436,10.7046366 11.7613048,11.2392848 L6.43903479,15.3284522 C6.07409481,15.5645885 5.73019147,15.6634984 5.37714177,15.6634984" id="Fill-3" fill="#E1007A"></path>
                        <g id="Group-7" transform="translate(4.338453, 14.999644)">
                            <mask id="mask-2" fill="white">
                                <use xlink:href="#path-1"></use>
                            </mask>
                            <g id="Clip-6"></g>
                            <path d="M13.7802155,14.9950992 C7.93934656,14.8471843 2.72866223,11.5395925 0.182314119,6.36256981 C-0.0527474702,5.88496497 -0.060979199,5.33518476 0.160362842,4.85312464 C0.381704883,4.37462874 0.803352325,4.01731616 1.31920733,3.87118333 C1.48475654,3.82484853 1.65304966,3.80168113 1.82225742,3.80168113 C2.52195437,3.80168113 3.17500486,4.20711062 3.484152,4.83530357 C5.43232782,8.79158252 9.41465529,11.3195022 13.8762523,11.431775 L14.1817409,11.4362303 C20.0564514,11.4362303 25.1198792,7.176993 25.9595155,1.52860284 C26.0884793,0.657152205 26.866835,0.000445540143 27.7686666,0.000445540143 C27.8564717,0.000445540143 27.9451915,0.00668291688 28.0348258,0.0191576704 C28.51501,0.0877688145 28.9430599,0.334590723 29.234829,0.715961757 C29.5284273,1.09733279 29.6509886,1.56780921 29.5796469,2.03828563 C28.4820831,9.42779495 21.8738341,15.0004455 14.20918,15.0004455 C14.0655821,15.0004455 13.9228988,14.9986634 13.7802155,14.9950992" id="Fill-5" fill="#1ED7DC" mask="url(#mask-2)"></path>
                        </g>
                        <g id="Group-10" transform="translate(24.905711, 14.336769)">
                            <mask id="mask-4" fill="white">
                                <use xlink:href="#path-3"></use>
                            </mask>
                            <g id="Clip-9"></g>
                            <path d="M10.776815,8.86001129 C10.1091304,8.86001129 9.49357999,8.50625241 9.17162793,7.93596103 L6.69113365,4.3573826 L2.86795294,7.38794665 L2.8267943,7.4128969 C2.52862279,7.60180592 2.18380481,7.70160691 1.83075511,7.70160691 C1.206973,7.70160691 0.631666617,7.39685746 0.2932511,6.88805061 C-0.254616184,6.06291027 -0.0122375026,4.95797071 0.831972018,4.42332254 L6.15515664,0.334155107 C6.52009662,0.0989099118 6.86399996,-3.16575312e-15 7.21613502,-3.16575312e-15 C7.88381969,-3.16575312e-15 8.49662617,0.352867793 8.81766359,0.921377016 L12.3435874,6.15914694 C12.8658449,7.07874179 12.5429782,8.16496866 11.6594393,8.63902338 C11.3896215,8.78337838 11.0841329,8.86001129 10.776815,8.86001129" id="Fill-8" fill="#1ED7DC" mask="url(#mask-4)"></path>
                        </g>
                    </g>
                </g>
            </g>
        </g>
    </g>
</svg>