<?xml version="1.0" encoding="UTF-8"?>
<svg width="18px" height="24px" viewBox="0 0 18 24" version="1.1" xmlns="http://www.w3.org/2000/svg" xmlns:xlink="http://www.w3.org/1999/xlink">
    <title>odxc_Group Copy 2</title>
    <defs>
        <polygon id="path-1" points="0.00217297297 0.095027027 10.2407676 0.095027027 10.2407676 16.8174486 0.00217297297 16.8174486"></polygon>
        <polygon id="path-3" points="0.252778378 0.284983784 17.1256216 0.284983784 17.1256216 12.4192541 0.252778378 12.4192541"></polygon>
    </defs>
    <g id="Symbols" stroke="none" stroke-width="1" fill="none" fill-rule="evenodd">
        <g id="Group-Copy-2">
            <g id="Group-7" transform="translate(3.567568, 0.000000)">
                <mask id="mask-2" fill="white">
                    <use xlink:href="#path-1"></use>
                </mask>
                <g id="Clip-6"></g>
                <path d="M5.12163243,2.04090811 C3.37157838,2.04090811 1.94811892,3.46436757 1.94811892,5.21442162 L1.94811892,11.6979892 C1.94811892,13.4477189 3.37157838,14.8715027 5.12163243,14.8715027 C6.87168649,14.8715027 8.29482162,13.4477189 8.29482162,11.6979892 L8.29482162,5.21442162 C8.29482162,3.46436757 6.87168649,2.04090811 5.12163243,2.04090811 M5.12163243,16.8174486 C2.29871351,16.8174486 0.00217297297,14.5205838 0.00217297297,11.6979892 L0.00217297297,5.21442162 C0.00217297297,2.3915027 2.29871351,0.0949621622 5.12163243,0.0949621622 C7.94422703,0.0949621622 10.2407676,2.3915027 10.2407676,5.21442162 L10.2407676,11.6979892 C10.2407676,14.5205838 7.94422703,16.8174486 5.12163243,16.8174486" id="Fill-5" fill="#FFFFFF" mask="url(#mask-2)"></path>
            </g>
            <g id="Group-10" transform="translate(0.000000, 10.702703)">
                <mask id="mask-4" fill="white">
                    <use xlink:href="#path-3"></use>
                </mask>
                <g id="Clip-9"></g>
                <path d="M17.1257514,1.25795676 C17.1257514,0.720551351 16.6898595,0.284983784 16.1527784,0.284983784 C15.615373,0.284983784 15.1798054,0.720551351 15.1798054,1.25795676 C15.1798054,4.83687568 12.2680216,7.74865946 8.6891027,7.74865946 C5.11018378,7.74865946 2.19872432,4.83687568 2.19872432,1.25795676 C2.19872432,0.720551351 1.76283243,0.284983784 1.22575135,0.284983784 C0.688021622,0.284983784 0.252778378,0.720551351 0.252778378,1.25795676 C0.252778378,5.58055135 3.52131892,9.15233514 7.71612973,9.63655135 L7.71612973,11.4462811 C7.71612973,11.9833622 8.1516973,12.4192541 8.6891027,12.4192541 C9.22650811,12.4192541 9.66207568,11.9833622 9.66207568,11.4462811 L9.66207568,9.63655135 C13.8572108,9.15233514 17.1257514,5.58055135 17.1257514,1.25795676" id="Fill-8" fill="#FFFFFF" mask="url(#mask-4)"></path>
            </g>
        </g>
    </g>
</svg>
