<?xml version="1.0" encoding="UTF-8"?>
<svg width="20px" height="4px" viewBox="0 0 20 4" version="1.1" xmlns="http://www.w3.org/2000/svg" xmlns:xlink="http://www.w3.org/1999/xlink">
    <title>odxc_Group</title>
    <g id="Symbols" stroke="none" stroke-width="1" fill="none" fill-rule="evenodd">
        <g id="icon/ic_more_horiz" transform="translate(1.000000, -8.000000)" fill="#1ED7DC">
            <g id="Group" transform="translate(-1.000000, 8.000000)">
                <path d="M2,0 C0.9,0 0,0.9 0,2 C0,3.1 0.9,4 2,4 C3.1,4 4,3.1 4,2 C4,0.9 3.1,0 2,0 L2,0 Z" id="Path"></path>
                <path d="M18,0 C16.9,0 16,0.9 16,2 C16,3.1 16.9,4 18,4 C19.1,4 20,3.1 20,2 C20,0.9 19.1,0 18,0 L18,0 Z" id="Path"></path>
                <path d="M10,0 C8.9,0 8,0.9 8,2 C8,3.1 8.9,4 10,4 C11.1,4 12,3.1 12,2 C12,0.9 11.1,0 10,0 L10,0 Z" id="Path"></path>
            </g>
        </g>
    </g>
</svg>