<?xml version="1.0" encoding="UTF-8"?>
<svg width="27px" height="34px" viewBox="0 0 27 34" version="1.1" xmlns="http://www.w3.org/2000/svg" xmlns:xlink="http://www.w3.org/1999/xlink">
    <title>matchapp_Group 16</title>
    <g id="Symbols" stroke="none" stroke-width="1" fill="none" fill-rule="evenodd">
        <g id="Group-16">
            <path d="M13.463236,2.83158182 C17.5691198,2.83158182 20.9607593,5.76361818 21.64455,9.61334545 C21.7264919,9.15156364 21.7895965,8.68236364 21.7895965,8.1974 C21.7895965,3.67014545 18.0613988,-2.196223e-14 13.463236,-2.196223e-14 C8.8647593,-2.196223e-14 5.13687558,3.67014545 5.13687558,8.1974 C5.13687558,8.68236364 5.19998023,9.15156364 5.28160814,9.61334545 C5.96571279,5.76361818 9.35703837,2.83158182 13.463236,2.83158182" id="Fill-16" fill="#D8D9DA"></path>
            <path d="M19.858186,16.2171345 C21.0480698,14.8021164 21.789314,13.0096982 21.789314,11.0290436 C21.789314,10.54408 21.7265233,10.0751891 21.6442674,9.61340727 L21.6442674,9.61309818 C21.0992442,12.6817527 18.8312442,15.1618982 15.8543372,16.0443527 L15.8546512,16.0443527 C15.0973953,16.2687527 14.296186,16.3948618 13.4632674,16.3948618 C12.6303488,16.3948618 11.8291395,16.2687527 11.0715698,16.0443527 L11.0718837,16.0443527 C10.0389767,15.7383527 9.09272093,15.2391709 8.27361628,14.5903891 C8.26765116,14.5857527 8.26137209,14.5817345 8.25540698,14.5774073 C8.12543023,14.4735527 8.00424419,14.3598073 7.88086047,14.2488436 C7.80896512,14.1842436 7.73236047,14.1248982 7.66297674,14.0578255 C7.4020814,13.8062255 7.16504651,13.5320618 6.93962791,13.2483164 C6.67496512,12.9160436 6.42913953,12.5680073 6.21847674,12.1967891 C5.76952326,11.4064436 5.44615116,10.53728 5.28163953,9.61309818 C5.20001163,10.0751891 5.13659302,10.54408 5.13659302,11.0290436 C5.13659302,13.00908 5.87783721,14.8011891 7.06740698,16.2162073 C3.03593023,17.0158255 3.56923793e-13,20.5218436 3.56923793e-13,24.7264073 L3.56923793e-13,34.0000618 L26.919314,34.0000618 L26.919314,24.7264073 C26.919314,20.5240073 23.8865233,17.0192255 19.858186,16.2171345" id="Fill-18" fill="#C8C8C8"></path>
            <path d="M13.463236,2.83158182 C9.35703837,2.83158182 5.96571279,5.76361818 5.28160814,9.61334545 C5.44611977,10.5375273 5.76980581,11.4063818 6.21844535,12.1967273 C7.25951512,14.0314909 8.99159651,15.4276545 11.0718523,16.0442909 L11.0715384,16.0442909 C11.8291081,16.2686909 12.6303174,16.3948 13.463236,16.3948 C14.2961547,16.3948 15.097364,16.2686909 15.8546198,16.0442909 L15.8543058,16.0442909 C18.8312128,15.1621455 21.0992128,12.682 21.64455,9.61303636 L21.64455,9.61334545 C20.9607593,5.76361818 17.5691198,2.83158182 13.463236,2.83158182" id="Fill-20" fill="#9B9C9E"></path>
        </g>
    </g>
</svg>