<?xml version="1.0" encoding="UTF-8"?>
<svg width="48px" height="48px" viewBox="0 0 48 48" version="1.1" xmlns="http://www.w3.org/2000/svg" xmlns:xlink="http://www.w3.org/1999/xlink">
    <title>odxc_odxc_ic_secret_m</title>
    <g id="Symbols" stroke="none" stroke-width="1" fill="none" fill-rule="evenodd">
        <g id="icon/secret_message_active" fill-rule="nonzero">
            <g id="odxc_ic_secret_m">
                <circle id="Oval" fill="#D7D7D7" cx="24" cy="24" r="24"></circle>
                <path d="M12.4093252,32.392638 L12.4093252,32.392638 C12.4093252,32.3484663 12.4093252,32.3013497 12.4093252,32.2542331 L12.4093252,32.392638 Z" id="Path" fill="#002D91"></path>
                <path d="M35.5700613,32.392638 L35.5700613,32.2542331 C35.5730595,32.3003194 35.5730595,32.3465518 35.5700613,32.392638 L35.5700613,32.392638 Z" id="Path" fill="#002D91"></path>
                <path d="M35.5700613,32.0981595 L35.5700613,32.2336196 C35.5730065,32.1885143 35.5730065,32.1432649 35.5700613,32.0981595 Z" id="Path" fill="#E1007A"></path>
                <path d="M18.8230675,24.8628221 L13.0395092,18.0603681 C12.6416154,17.5745316 12.4195453,16.9685085 12.4093252,16.3406135 L12.4093252,32.0981595 C12.4230953,31.5447735 12.6486564,31.0177615 13.0395092,30.6257669 L18.8230675,24.8628221 Z" id="Path" fill="#002D91"></path>
                <path d="M29.1533742,24.8628221 L34.9339877,30.6463804 C35.3271552,31.036807 35.553134,31.5647948 35.5641718,32.118773 L35.5641718,16.3406135 C35.5567563,16.9690265 35.3343569,17.5759484 34.9339877,18.0603681 L29.1533742,24.8628221 Z" id="Path" fill="#002D91"></path>
                <path d="M34.9398773,30.6463804 L29.1533742,24.8628221 L25.5195092,29.1533742 C25.1517584,29.6245548 24.5873987,29.8999844 23.9896933,29.8999844 C23.3919878,29.8999844 22.8276281,29.6245548 22.4598773,29.1533742 L18.8230675,24.8628221 L13.0395092,30.6463804 C12.6486564,31.038375 12.4230953,31.5653869 12.4093252,32.118773 L12.4093252,32.2542331 C12.4093252,32.3013497 12.4093252,32.3484663 12.4093252,32.392638 C12.4568398,32.8935556 12.6776245,33.3622024 13.0336196,33.7177914 L13.1896933,33.873865 C13.571731,34.1792418 14.0463715,34.345418 14.5354601,34.3450314 L33.4321472,34.3450314 C33.9212358,34.345418 34.3958764,34.1792418 34.7779141,33.873865 L34.9339877,33.7177914 C35.2910152,33.3629297 35.5119856,32.8938885 35.5582822,32.392638 C35.5612803,32.3465518 35.5612803,32.3003194 35.5582822,32.2542331 L35.5582822,32.0981595 C35.5451142,31.5530163 35.3238508,31.033574 34.9398773,30.6463804 L34.9398773,30.6463804 Z" id="Path" fill="#E1007A"></path>
                <path d="M35.5700613,16.3052761 C35.5888937,15.6340555 35.3651598,14.9785364 34.9398773,14.4588957 L34.7838037,14.2733742 C34.4223066,13.9238498 33.94084,13.7257848 33.4380368,13.7197546 L14.5413497,13.7197546 C14.0385465,13.7257848 13.5570799,13.9238498 13.1955828,14.2733742 L13.0395092,14.4588957 C12.6142267,14.9785364 12.3904928,15.6340555 12.4093252,16.3052761 L12.4093252,16.3052761 L12.4093252,16.3406135 C12.4195453,16.9685085 12.6416154,17.5745316 13.0395092,18.0603681 L18.8230675,24.8628221 L22.4598773,29.1533742 C22.8276281,29.6245548 23.3919878,29.8999844 23.9896933,29.8999844 C24.5873987,29.8999844 25.1517584,29.6245548 25.5195092,29.1533742 L29.1533742,24.8628221 L34.9339877,18.0603681 C35.3343569,17.5759484 35.5567563,16.9690265 35.5641718,16.3406135 L35.5641718,16.3052761 L35.5700613,16.3052761 Z M24.9541104,21.5381595 L24.9541104,24.2179141 C24.9541104,24.6863058 24.5744039,25.0660123 24.1060123,25.0660123 L23.8733742,25.0660123 C23.4049826,25.0660123 23.0252761,24.6863058 23.0252761,24.2179141 L23.0252761,21.5381595 C22.8353685,21.4519531 22.6588392,21.338895 22.5011043,21.202454 C21.8095644,20.5850207 21.5709649,19.6047766 21.90138,18.7385912 C22.231795,17.8724057 23.0626273,17.300107 23.9896933,17.300107 C24.9167592,17.300107 25.7475915,17.8724057 26.0780065,18.7385912 C26.4084216,19.6047766 26.1698221,20.5850207 25.4782822,21.202454 C25.3205473,21.338895 25.144018,21.4519531 24.9541104,21.5381595 Z" id="Shape" fill="#1ED7DC"></path>
                <path d="M23.9911656,17.2917791 C23.0581843,17.2839425 22.2187562,17.8572134 21.8865529,18.729083 C21.5543496,19.6009526 21.7994644,20.5874605 22.5011043,21.202454 C22.6578901,21.3440905 22.8344669,21.4621391 23.0252761,21.5528834 L23.0252761,24.232638 C23.0252761,24.7010297 23.4049826,25.0807362 23.8733742,25.0807362 L24.1060123,25.0807362 C24.5744039,25.0807362 24.9541104,24.7010297 24.9541104,24.232638 L24.9541104,21.5528834 C25.1449196,21.4621391 25.3214964,21.3440905 25.4782822,21.202454 C26.1660457,20.5873942 26.404504,19.6125651 26.0783183,18.7494776 C25.7521325,17.8863901 24.9285356,17.3129425 24.0058896,17.3065031 L23.9911656,17.2917791 Z" id="Path" fill="#002D91"></path>
            </g>
        </g>
    </g>
</svg>