<?xml version="1.0" encoding="UTF-8"?>
<svg width="28px" height="28px" viewBox="0 0 28 28" version="1.1" xmlns="http://www.w3.org/2000/svg" xmlns:xlink="http://www.w3.org/1999/xlink">
    <title>matchapp_Fill 4</title>
    <g id="Symbols" stroke="none" stroke-width="1" fill="none" fill-rule="evenodd">
        <g id="elements/icon/no_color" fill="#E1007A">
            <path d="M20.3431136,14 L26.6861834,7.65695 C28.4379389,5.9052 28.4379389,3.0653 26.6861834,1.31355 C24.9347779,-0.43785 22.094869,-0.43785 20.3431136,1.31355 L14.0000438,7.65695 L7.65697393,1.31355 C5.90521845,-0.43785 3.06530958,-0.43785 1.3135541,1.31355 C-0.437851368,3.0653 -0.437851368,5.9052 1.3135541,7.6566 L7.65662393,14 L1.3135541,20.3434 C-0.437851368,22.0948 -0.437851368,24.9347 1.3135541,26.6861 C3.06530958,28.43785 5.90521845,28.43785 7.65697393,26.68645 L14.0000438,20.3434 L20.3431136,26.68645 C22.094519,28.43785 24.9347779,28.43785 26.6861834,26.68645 C28.4379389,24.9347 28.4379389,22.0948 26.6861834,20.3434 L20.3431136,14 Z" id="Fill-4"></path>
        </g>
    </g>
</svg>