<?xml version="1.0" encoding="UTF-8"?>
<svg width="27px" height="34px" viewBox="0 0 27 34" version="1.1" xmlns="http://www.w3.org/2000/svg" xmlns:xlink="http://www.w3.org/1999/xlink">
    <title>matchapp_Group 8</title>
    <defs>
        <polygon id="path-1" points="0.000125581395 0.0313727273 26.9194395 0.0313727273 26.9194395 24.4181818 0.000125581395 24.4181818"></polygon>
    </defs>
    <g id="Symbols" stroke="none" stroke-width="1" fill="none" fill-rule="evenodd">
        <g id="Group-8" transform="translate(-0.000000, 0.000000)">
            <path d="M13.4633616,2.83136545 C17.5692453,2.83136545 20.9608849,5.76371091 21.6446756,9.61312909 C21.7266174,9.15134727 21.7897221,8.68245636 21.7897221,8.19749273 C21.7897221,3.66992909 18.0615244,9.27272727e-05 13.4633616,9.27272727e-05 C8.86488488,9.27272727e-05 5.13700116,3.66992909 5.13700116,8.19749273 C5.13700116,8.68245636 5.20010581,9.15134727 5.28173372,9.61312909 C5.96583837,5.76371091 9.35716395,2.83136545 13.4633616,2.83136545" id="Fill-1" fill="#1ED7DC"></path>
            <g id="Group-5" transform="translate(0.000000, 9.581818)">
                <mask id="mask-2" fill="white">
                    <use xlink:href="#path-1"></use>
                </mask>
                <g id="Clip-4"></g>
                <path d="M19.8583116,6.6351 C21.0481953,5.22008182 21.7894395,3.42766364 21.7894395,1.44700909 C21.7894395,0.962045455 21.7266488,0.493154545 21.644393,0.0313727273 L21.644393,0.0313727273 C21.0993698,3.09971818 18.8313698,5.58017273 15.8544628,6.46231818 L15.8547767,6.46231818 C15.0975209,6.68671818 14.2963116,6.81313636 13.463393,6.81313636 C12.6304744,6.81313636 11.8292651,6.68671818 11.0716953,6.46231818 L11.0720093,6.46231818 C10.0391023,6.15631818 9.09284651,5.65713636 8.27374186,5.00835455 C8.26777674,5.00371818 8.26149767,5.00000909 8.25553256,4.99537273 C8.12555581,4.89182727 8.00436977,4.77808182 7.88098605,4.66680909 C7.8090907,4.60220909 7.73248605,4.54286364 7.66310233,4.47579091 C7.40220698,4.22419091 7.16517209,3.95002727 6.93975349,3.66659091 C6.6750907,3.33400909 6.42926512,2.98628182 6.21860233,2.61506364 C5.76964884,1.82440909 5.44627674,0.955554545 5.28176512,0.0313727273 C5.20013721,0.493154545 5.1367186,0.962045455 5.1367186,1.44700909 C5.1367186,3.42704545 5.87796279,5.21915455 7.06753256,6.63417273 C3.03605581,7.43379091 0.000125581395,10.9398091 0.000125581395,15.1443727 L0.000125581395,24.4183364 L26.9194395,24.4183364 L26.9194395,15.1443727 C26.9194395,10.9419727 23.8866488,7.43719091 19.8583116,6.6351" id="Fill-3" fill="#E1007A" mask="url(#mask-2)"></path>
            </g>
            <path d="M13.4633616,2.83136545 C9.35716395,2.83136545 5.96583837,5.76371091 5.28173372,9.61312909 C5.44624535,10.5373109 5.7699314,11.4061655 6.21857093,12.19682 C7.2596407,14.0312745 8.99172209,15.4274382 11.0719779,16.0440745 L11.071664,16.0440745 C11.8292337,16.2687836 12.630443,16.3948927 13.4633616,16.3948927 C14.2962802,16.3948927 15.0974895,16.2687836 15.8547453,16.0440745 L15.8544314,16.0440745 C18.8313384,15.1619291 21.0993384,12.6817836 21.6446756,9.61312909 L21.6446756,9.61312909 L21.6446756,9.61312909 C20.9608849,5.76371091 17.5692453,2.83136545 13.4633616,2.83136545" id="Fill-6" fill="#002D91"></path>
        </g>
    </g>
</svg>