<?xml version="1.0" encoding="UTF-8"?>
<svg width="33px" height="24px" viewBox="0 0 33 24" version="1.1" xmlns="http://www.w3.org/2000/svg" xmlns:xlink="http://www.w3.org/1999/xlink">
    <title>odxc_Zeichenfläche 2</title>
    <g id="Symbols" stroke="none" stroke-width="1" fill="none" fill-rule="evenodd">
        <g id="icon/maybe_white" fill="#FFFFFF" fill-rule="nonzero">
            <g id="Zeichenfläche-2">
                <polyline id="Path" points="11.3621053 8.69684211 11.3621053 8.69052632 11.3621053 8.69052632"></polyline>
                <path d="M30.3157895,9.24 C32.2068072,7.25685491 32.1723753,4.12782123 30.2381757,2.18676882 C28.3039761,0.245716423 25.1750838,0.200218359 23.1852632,2.08421053 L16.0294737,9.24 L8.88,2.08421053 C6.9039833,0.108193827 3.70022723,0.108193827 1.72421053,2.08421053 C-0.251806173,4.06022723 -0.251806173,7.2639833 1.72421053,9.24 L7.09894737,14.6147368 C9.56526222,12.1491667 13.5631588,12.1491667 16.0294737,14.6147368 C17.2141153,13.4287766 18.8216258,12.7624001 20.4978947,12.7624001 C22.1741637,12.7624001 23.7816742,13.4287766 24.9663158,14.6147368 L30.3157895,9.24 Z" id="Path"></path>
                <path d="M16.0294737,14.6147368 C13.5631588,12.1491667 9.56526222,12.1491667 7.09894737,14.6147368 L7.09894737,14.6147368 L8.88,16.4210526 L8.88,16.4210526 L16.0294737,23.5515789 L16.0294737,23.5515789 C15.7943497,23.306803 15.5828833,23.0403554 15.3978947,22.7557895 C15.5828833,23.0403554 15.7943497,23.306803 16.0294737,23.5515789 L16.0294737,23.5515789 L23.1852632,16.4210526 L23.1852632,16.4210526 L24.9663158,14.64 C23.78503,13.4506847 22.179402,12.7797597 20.5031311,12.7750212 C18.8268601,12.7702826 17.2174646,13.4321192 16.0294737,14.6147368 Z" id="Path" opacity="0.5"></path>
            </g>
        </g>
    </g>
</svg>