<?xml version="1.0" encoding="UTF-8"?>
<svg width="37px" height="27px" viewBox="0 0 37 27" version="1.1" xmlns="http://www.w3.org/2000/svg" xmlns:xlink="http://www.w3.org/1999/xlink">
    <title>odxc_odxc_maybe_color copy</title>
    <g id="Symbols" stroke="none" stroke-width="1" fill="none" fill-rule="evenodd">
        <g id="icon/maybe_active" fill-rule="nonzero">
            <g id="odxc_maybe_color-copy">
                <path d="M35.1870968,10.4080645 C37.4719522,8.12320906 37.4719522,4.41872642 35.1870968,2.13387097 C32.9022413,-0.150984489 29.1977587,-0.150984489 26.9129032,2.13387097 L18.6387097,10.4080645 L10.3645161,2.13387097 C8.07966067,-0.150984489 4.37517804,-0.150984489 2.09032258,2.13387097 C-0.194532876,4.41872642 -0.194532876,8.12320906 2.09032258,10.4080645 L8.35258065,16.6137097 C9.72057156,15.2454966 11.5760987,14.4768239 13.5108871,14.4768239 C15.4456755,14.4768239 17.3012026,15.2454966 18.6691935,16.6137097 C20.036441,15.2457614 21.8912471,14.4771972 23.8253226,14.4771972 C25.759398,14.4771972 27.6142042,15.2457614 28.9814516,16.6137097 L35.1870968,10.4080645 Z" id="Path" fill="#002D91"></path>
                <path d="M18.6691935,16.6137097 C17.3012026,15.2454966 15.4456755,14.4768239 13.5108871,14.4768239 C11.5760987,14.4768239 9.72057156,15.2454966 8.35258065,16.6137097 L8.35258065,16.6137097 L10.4080645,18.6691935 L10.4080645,18.6691935 L18.6822581,26.9433871 L18.6822581,26.9433871 C18.4014926,26.6653937 18.1504595,26.3588999 17.9332258,26.028871 C18.1504595,26.3588999 18.4014926,26.6653937 18.6822581,26.9433871 L18.6822581,26.9433871 L26.9564516,18.6691935 L26.9564516,18.6691935 L29.0119355,16.6137097 C27.6434712,15.2364089 25.7821237,14.4619022 23.8405645,14.4619022 C21.8990053,14.4619022 20.0376579,15.2364089 18.6691935,16.6137097 Z" id="Path" fill="#E1007A"></path>
            </g>
        </g>
    </g>
</svg>