<svg xmlns="http://www.w3.org/2000/svg" viewBox="0 0 163 163"><defs><style>.e89c4ac3-5aa1-45c8-908e-66881734bbf7{fill:#002d91;}.e896d177-510a-4df0-ba14-12966d15513e{fill:none;}.a328e85c-cd83-4773-ace4-f4de317cf682,.a444f332-ab5b-4d82-a9dc-b7aad7fe116c{fill:#fff;}.a444f332-ab5b-4d82-a9dc-b7aad7fe116c{opacity:0.7;}.a328e85c-cd83-4773-ace4-f4de317cf682{opacity:0.35;}</style></defs><g id="a92cd04b-c54e-45d9-8a12-9685116b471f" data-name="elements"><path class="e89c4ac3-5aa1-45c8-908e-66881734bbf7" d="M118.45,105.2v-.47c0,.16,0,.32,0,.47Z"/><path class="e896d177-510a-4df0-ba14-12966d15513e" d="M110.52,47.39,91.61,58.3v43.94l18.91,10.92a5.27,5.27,0,0,0,7.9-4.57V52A5.26,5.26,0,0,0,110.52,47.39Z"/><path class="a444f332-ab5b-4d82-a9dc-b7aad7fe116c" d="M61.46,75.71,91.61,58.3V52a5.26,5.26,0,0,0-7.9-4.56l-49,28.32a5.26,5.26,0,0,0,0,9.12l49.05,28.33a5.27,5.27,0,0,0,7.9-4.57v-6.35L61.46,84.83A5.27,5.27,0,0,1,61.46,75.71Z"/><path class="a328e85c-cd83-4773-ace4-f4de317cf682" d="M81.5,0A81.5,81.5,0,1,0,163,81.5,81.5,81.5,0,0,0,81.5,0Zm36.92,108.59a5.27,5.27,0,0,1-7.9,4.57L91.61,102.24V58.3l18.91-10.91a5.26,5.26,0,0,1,7.9,4.56Z"/><path class="a328e85c-cd83-4773-ace4-f4de317cf682" d="M61.46,75.71a5.27,5.27,0,0,0,0,9.12l30.15,17.41V58.3Z"/></g></svg>