<?xml version="1.0" encoding="UTF-8"?>
<svg width="34px" height="34px" viewBox="0 0 34 34" version="1.1" xmlns="http://www.w3.org/2000/svg" xmlns:xlink="http://www.w3.org/1999/xlink">
    <title>matchapp_elements/logo/MatchAppLogo_v1_xs</title>
    <defs>
        <polygon id="path-1" points="0 0.0197366792 33.999864 0.0197366792 33.999864 18.654863 0 18.654863"></polygon>
        <polygon id="path-3" points="0 0 34 0 34 17.1504425 0 17.1504425"></polygon>
    </defs>
    <g id="Symbols" stroke="none" stroke-width="1" fill="none" fill-rule="evenodd">
        <g id="Group-9">
            <g id="Group-3" transform="translate(0.000000, 15.345133)">
                <mask id="mask-2" fill="white">
                    <use xlink:href="#path-1"></use>
                </mask>
                <g id="Clip-2"></g>
                <path d="M32.4047115,9.33737437 L24.7023515,1.61843325 L24.7023515,1.61843325 C22.5753965,-0.513162177 19.1269465,-0.513162177 16.9999915,1.61843325 C14.8730365,-0.513162177 11.4245015,-0.513162177 9.2975465,1.61843325 L9.2976315,1.61843325 C9.2976315,1.61843325 9.2976315,1.61843325 9.2976315,1.61843325 L1.5951865,9.33737437 C-0.5317685,11.4688846 -0.5317685,14.9247201 1.5951865,17.0561451 L1.5951865,17.0562303 C3.7222265,19.1877406 7.1706765,19.1877406 9.2976315,17.0562303 L16.9999065,9.33745955 L24.7022665,17.0562303 C26.8291365,19.1877406 30.2776715,19.1877406 32.4047115,17.0562303 L32.4047115,17.0561451 C34.5315815,14.9247201 34.5315815,11.4688846 32.4047115,9.33737437" id="Fill-1" fill="#E1007A" mask="url(#mask-2)"></path>
            </g>
            <g id="Group-6">
                <mask id="mask-4" fill="white">
                    <use xlink:href="#path-3"></use>
                </mask>
                <g id="Clip-5"></g>
                <path d="M17,17.1504425 L17,17.1504425 C19.126955,15.0046649 22.57549,15.0046649 24.702445,17.1504425 L32.404805,9.37992 C34.53176,7.23414239 34.53176,3.75508938 32.404805,1.60939752 C30.277765,-0.536465841 26.829315,-0.536465841 24.702445,1.60939752 L17,9.37992 L9.297555,1.60939752 C7.170685,-0.536465841 3.722235,-0.536465841 1.59528,1.60939752 C-0.53176,3.75508938 -0.53176,7.23414239 1.59528,9.37983425 L9.297555,17.1504425 C11.42451,15.0046649 14.873045,15.0046649 17,17.1504425" id="Fill-4" fill="#1ED7DC" mask="url(#mask-4)"></path>
            </g>
            <path d="M17,16.9454571 L17,16.9454571 C14.8812957,14.8116913 11.4461379,14.8116913 9.32743363,16.9454571 L9.32743363,16.9454571 C9.32760297,16.9455424 9.32777231,16.9457129 9.32794165,16.9457982 L17,24.6725664 L24.6725664,16.9454571 C22.5538621,14.8116913 19.1187043,14.8116913 17,16.9454571" id="Fill-7" fill="#002D91"></path>
        </g>
    </g>
</svg>