<?xml version="1.0" encoding="UTF-8"?>
<svg width="36px" height="12px" viewBox="0 0 36 12" version="1.1" xmlns="http://www.w3.org/2000/svg" xmlns:xlink="http://www.w3.org/1999/xlink">
    <title>Matchapp_elements/icon/ic_more_horiz_white copy 2</title>
    <defs>
        <path d="M6,16 C3.8,16 2,17.8 2,20 C2,22.2 3.8,24 6,24 C8.2,24 10,22.2 10,20 C10,17.8 8.2,16 6,16 L6,16 Z M30,16 C27.8,16 26,17.8 26,20 C26,22.2 27.8,24 30,24 C32.2,24 34,22.2 34,20 C34,17.8 32.2,16 30,16 L30,16 Z M18,16 C15.8,16 14,17.8 14,20 C14,22.2 15.8,24 18,24 C20.2,24 22,22.2 22,20 C22,17.8 20.2,16 18,16 L18,16 Z" id="path-1"></path>
        <filter x="-6.2%" y="-25.0%" width="112.5%" height="150.0%" filterUnits="objectBoundingBox" id="filter-2">
            <feGaussianBlur stdDeviation="0" in="SourceGraphic"></feGaussianBlur>
        </filter>
        <filter x="-9.4%" y="-37.5%" width="118.8%" height="175.0%" filterUnits="objectBoundingBox" id="filter-3">
            <feOffset dx="0" dy="0" in="SourceAlpha" result="shadowOffsetOuter1"></feOffset>
            <feGaussianBlur stdDeviation="1" in="shadowOffsetOuter1" result="shadowBlurOuter1"></feGaussianBlur>
            <feColorMatrix values="0 0 0 0 0   0 0 0 0 0   0 0 0 0 0  0 0 0 0.5 0" type="matrix" in="shadowBlurOuter1"></feColorMatrix>
        </filter>
    </defs>
    <g id="MatchApp-Recomm" stroke="none" stroke-width="1" fill="none" fill-rule="evenodd">
        <g id="MatchApp_v3-Female-v4-MatchProfil_Data" transform="translate(-327.000000, -22.000000)">
            <g id="ic_more_horiz" transform="translate(327.000000, 8.000000)" filter="url(#filter-2)">
                <use fill="black" fill-opacity="1" filter="url(#filter-3)" xlink:href="#path-1"></use>
                <use fill="#FFFFFF" fill-rule="evenodd" xlink:href="#path-1"></use>
            </g>
        </g>
    </g>
</svg>