<?xml version="1.0" encoding="UTF-8"?>
<svg width="48px" height="48px" viewBox="0 0 48 48" version="1.1" xmlns="http://www.w3.org/2000/svg" xmlns:xlink="http://www.w3.org/1999/xlink">
    <title>odxc_icon/video able</title>
    <g id="Symbols" stroke="none" stroke-width="1" fill="none" fill-rule="evenodd">
        <g id="overlay/toast" transform="translate(-291.000000, -24.000000)">
            <g id="Group-2" transform="translate(291.000000, 24.000000)">
                <g id="Group-Copy" fill="#1ED7DC" opacity="0.8">
                    <circle id="Oval" cx="24" cy="24" r="24"></circle>
                </g>
                <path d="M26,17.5 C27.1045695,17.5 28,18.3954305 28,19.5 L28,21.202 L31.5968325,19.6181787 C32.1022428,19.3955154 32.692463,19.6247272 32.9151262,20.1301374 C32.9710954,20.2571785 33,20.3944813 33,20.5333049 L33,27.9666951 C33,28.5189799 32.5522847,28.9666951 32,28.9666951 C31.8611764,28.9666951 31.7238736,28.9377905 31.5968325,28.8818213 L28,27.297 L28,28.5 C28,29.6045695 27.1045695,30.5 26,30.5 L17,30.5 C15.8954305,30.5 15,29.6045695 15,28.5 L15,19.5 C15,18.3954305 15.8954305,17.5 17,17.5 L26,17.5 Z" id="Combined-Shape" fill="#FFFFFF"></path>
            </g>
        </g>
    </g>
</svg>