<?xml version="1.0" encoding="UTF-8"?>
<svg width="72px" height="72px" viewBox="0 0 72 72" version="1.1" xmlns="http://www.w3.org/2000/svg" xmlns:xlink="http://www.w3.org/1999/xlink">
    <title>odxc_Group 3</title>
    <g id="MatchApp-Video-Call" stroke="none" stroke-width="1" fill="none" fill-rule="evenodd">
        <g id="MatchApp-Video-make-Call-" transform="translate(-30.000000, -546.000000)" fill="#FFFFFF">
            <g id="Group-3" transform="translate(30.000000, 546.000000)">
                <circle id="Oval-Copy" fill-opacity="0.33" cx="36" cy="36" r="36"></circle>
                <g id="cam_switch" transform="translate(18.000000, 21.000000)">
                    <g id="Group-2" transform="translate(0.300000, 0.000000)">
                        <path d="M17.184,23.856 C15.3649234,23.8697567 13.6155613,23.1570536 12.324,21.876 C11.6433545,21.1973855 11.119139,20.3782988 10.788,19.476 C10.643072,19.0750454 10.6988348,18.628943 10.938,18.276 C11.180685,17.9140898 11.5825068,17.6908555 12.018,17.676 L12.264,17.676 C12.7891582,17.6607535 13.2681466,17.974491 13.464,18.462 C13.6615221,18.9798094 13.9661687,19.4500692 14.358,19.842 C15.1236039,20.6150188 16.1680307,21.0474936 17.256,21.042 C18.2233145,21.0374192 19.1643188,20.7265517 19.944,20.154 C19.971677,20.1345144 19.9892638,20.1037375 19.992,20.07 C19.9997779,20.0466302 19.9997779,20.0213698 19.992,19.998 C19.6179426,19.6351558 19.505853,19.0794777 19.71,18.6 C19.9038613,18.1017637 20.3757061,17.7667539 20.91,17.748 L23.16,17.682 C23.5154127,17.6739044 23.858412,17.8128408 24.108,18.066 C24.3479556,18.3098249 24.476125,18.6421963 24.462,18.984 L24.402,21.24 C24.365285,21.9402707 23.8007139,22.4970366 23.1,22.524 C22.7638088,22.5267485 22.4410041,22.3924271 22.206,22.152 L22.134,22.086 L22.074,22.086 C22.0471008,22.0866816 22.0214248,22.0973799 22.002,22.116 C20.6489537,23.2416822 18.9440832,23.8573889 17.184,23.856 Z" id="Path"></path>
                        <path d="M11.862,16.272 C11.1594938,16.272 10.59,15.7025062 10.59,15 L10.65,12.75 C10.6565168,12.0071317 11.2571317,11.4065168 12,11.4 C12.3356534,11.3999732 12.6574443,11.5338727 12.894,11.772 L12.966,11.844 L13.026,11.844 C13.0531641,11.84464 13.0793271,11.8337387 13.098,11.814 C14.4446347,10.6879451 16.1426122,10.0681833 17.898,10.062 C19.7170766,10.0482433 21.4664387,10.7609464 22.758,12.042 C23.4365535,12.7222974 23.9604567,13.5408961 24.294,14.442 C24.4393037,14.8433555 24.3853163,15.2898698 24.1485435,15.645029 C23.9117707,16.0001882 23.520368,16.221759 23.094,16.242 L22.842,16.242 C22.3153415,16.2562951 21.8359096,15.9398699 21.642,15.45 C21.4266644,14.9386336 21.1056444,14.4785732 20.7,14.1 C19.9324894,13.3298249 18.8893075,12.8978655 17.802,12.9 C16.833209,12.9072316 15.8918282,13.2224261 15.114,13.8 C15.0830718,13.8192717 15.0647743,13.8535795 15.066,13.89 C15.0591131,13.911461 15.0591131,13.934539 15.066,13.956 C15.4328156,14.3180668 15.5421338,14.8670342 15.342,15.342 C15.1487237,15.8415811 14.677241,16.1786912 14.142,16.2 L11.862,16.272 Z" id="Path"></path>
                        <path d="M30.426,30.9 L4.974,30.9 C2.22830624,30.8966939 0.00330607675,28.6716938 3.90798505e-14,25.926 L3.90798505e-14,10.374 C0.00330607675,7.62830624 2.22830624,5.40330608 4.974,5.4 L7.266,5.4 L7.806,3 C7.89220752,1.31956105 9.27935154,0.00098308607 10.962,4.4408921e-14 L24.438,4.4408921e-14 C26.1206485,0.00098308607 27.5077925,1.31956105 27.594,3 L28.134,5.4 L30.426,5.4 C33.1716938,5.40330608 35.3966939,7.62830624 35.4,10.374 L35.4,25.926 C35.3966939,28.6716938 33.1716938,30.8966939 30.426,30.9 Z M4.974,8.4 C3.88515747,8.40329455 3.00329455,9.28515747 3,10.374 L3,25.926 C3.00329455,27.0148425 3.88515747,27.8967054 4.974,27.9 L30.426,27.9 C31.5148425,27.8967054 32.3967054,27.0148425 32.4,25.926 L32.4,10.374 C32.3967054,9.28515747 31.5148425,8.40329455 30.426,8.4 L25.734,8.4 L24.6,3.33 L24.6,3.162 C24.6,3.11903493 24.5829322,3.07782959 24.5525513,3.0474487 C24.5221704,3.01706781 24.4809651,3 24.438,3 L10.962,3 C10.8725299,3 10.8,3.07252987 10.8,3.162 L10.8,3.33 L9.666,8.4 L4.974,8.4 Z" id="Shape" fill-rule="nonzero"></path>
                    </g>
                </g>
            </g>
        </g>
    </g>
</svg>