<?xml version="1.0" encoding="UTF-8"?>
<svg width="14px" height="10px" viewBox="0 0 14 10" version="1.1" xmlns="http://www.w3.org/2000/svg" xmlns:xlink="http://www.w3.org/1999/xlink" style="background: #333333;">
    <title>odxc_icon/video-galerie-Icon</title>
    <g id="icon/video-galerie-Icon" stroke="none" stroke-width="1" fill="none" fill-rule="evenodd">
        <path d="M8,0 C9.1045695,-2.02906125e-16 10,0.8954305 10,2 L10,2.744 L12.6000555,1.61088485 C13.1062463,1.39000163 13.6956562,1.62128905 13.9165394,2.12747978 C13.9715869,2.25363031 14,2.38978636 14,2.52742423 L14,7.47257577 C14,8.02486052 13.5522847,8.47257577 13,8.47257577 C12.8623621,8.47257577 12.7262061,8.44416265 12.6000555,8.38911515 L10,7.255 L10,8 C10,9.1045695 9.1045695,10 8,10 L2,10 C0.8954305,10 1.3527075e-16,9.1045695 0,8 L0,2 C-1.3527075e-16,0.8954305 0.8954305,2.02906125e-16 2,0 L8,0 Z" id="Combined-Shape" fill="#FFFFFF"></path>
    </g>
</svg>
