<?xml version="1.0" encoding="UTF-8"?>
<svg width="25px" height="16px" viewBox="0 0 25 16" version="1.1" xmlns="http://www.w3.org/2000/svg" xmlns:xlink="http://www.w3.org/1999/xlink">
    <title>odxc_icon/video-chat-pink</title>
    <g id="icon/video-chat-pink" stroke="none" stroke-width="1" fill="none" fill-rule="evenodd">
        <rect id="Rectangle" stroke="#E1007A" stroke-width="2" x="1" y="1" width="14" height="14" rx="1"></rect>
        <path d="M18.8733264,3.23968413 C19.3296391,2.92856179 19.86886,2.83185067 20.3717833,2.92699832 C20.8747066,3.02214598 21.3413323,3.3091524 21.6524547,3.76546516 C21.8788875,4.09756656 22,4.49018965 22,4.89213881 L22,4.89213881 L22,11.1078612 C22,11.6601459 21.7761424,12.1601459 21.4142136,12.5220747 C21.0522847,12.8840036 20.5522847,13.1078612 20,13.1078612 C19.5980508,13.1078612 19.2054277,12.9867486 18.8733264,12.7603159 L18.8733264,12.7603159 L16.8733264,11.3966795 C16.3269172,11.0241278 16,10.4055551 16,9.74422482 L16,9.74422482 L16,6.25577518 C16,5.59444487 16.3269172,4.97587221 16.8733264,4.60332049 L16.8733264,4.60332049 Z" id="Rectangle-Copy" stroke="#E1007A" stroke-width="2"></path>
    </g>
</svg>