<?xml version="1.0" encoding="UTF-8"?>
<svg width="48px" height="48px" viewBox="0 0 48 48" version="1.1" xmlns="http://www.w3.org/2000/svg" xmlns:xlink="http://www.w3.org/1999/xlink">
    <g id="Symbols" stroke="none" fill="none" fill-rule="evenodd">
        <g id="icon/secret_message_white_inactive" fill-rule="nonzero">
            <path d="M24,0 C10.745166,0 0,10.745166 0,24 C0,37.254834 10.745166,48 24,48 C37.254834,48 48,37.254834 48,24 C48,17.6348042 45.4714358,11.5303103 40.9705627,7.02943725 C36.4696897,2.52856417 30.3651958,0 24,0 Z M13.0395092,30.6463804 C12.6486564,31.038375 12.4230953,31.5653869 12.4093252,32.118773 L12.4093252,16.3406135 C12.4195453,16.9685085 12.6416154,17.5745316 13.0395092,18.0603681 L18.8230675,24.8628221 L13.0395092,30.6463804 Z M25.4782822,21.202454 C25.3214964,21.3440905 25.1449196,21.4621391 24.9541104,21.5528834 L24.9541104,24.232638 C24.9541104,24.7010297 24.5744039,25.0807362 24.1060123,25.0807362 L23.8733742,25.0807362 C23.4049826,25.0807362 23.0252761,24.7010297 23.0252761,24.232638 L23.0252761,21.5528834 C22.8344669,21.4621391 22.6578901,21.3440905 22.5011043,21.202454 C21.8095644,20.5850207 21.5709649,19.6047766 21.90138,18.7385912 C22.231795,17.8724057 23.0626273,17.300107 23.9896933,17.300107 C24.9167592,17.300107 25.7475915,17.8724057 26.0780065,18.7385912 C26.4084216,19.6047766 26.1698221,20.5850207 25.4782822,21.202454 Z M35.5700613,32.0981595 C35.5590236,31.5441813 35.3330448,31.0161935 34.9398773,30.6257669 L29.1533742,24.8628221 L34.9339877,18.0603681 C35.3343569,17.5759484 35.5567563,16.9690265 35.5641718,16.3406135 L35.5700613,32.0981595 Z" id="Shape" fill="#FFFFFF" opacity="0.35"></path>
            <path d="M12,32.0692025 L12,32.0692025 C12,32.0250307 12,31.9779141 12,31.9307975 L12,32.0692025 Z" id="Path" fill="#002D91"></path>
            <path d="M35.9988757,32.0692025 L35.9988757,31.9307975 C36.0018738,31.9768838 36.0018738,32.0231162 35.9988757,32.0692025 L35.9988757,32.0692025 Z" id="Path" fill="#002D91"></path>
            <path d="M35.9988956,31.9322699 L35.9988956,32.0677301 C36.0018407,32.0226247 36.0018407,31.9773753 35.9988956,31.9322699 Z" id="Path" fill="#E1007A"></path>
            <path d="M34.3834001,30.4894406 L28.63469,25 L25.0245585,29.07236 C24.6592096,29.519579 24.0985358,29.781002 23.5047342,29.781002 C22.9109325,29.781002 22.3502588,29.519579 21.9849098,29.07236 L18.3718528,25 L12.6260682,30.4894406 C12.2377681,30.8615007 12.0136802,31.3617119 12,31.886956 L12,32.0155275 C12,32.0602479 12,32.1049684 12,32.1468939 C12.0472043,32.6223378 12.266547,33.067152 12.6202171,33.4046578 L12.7752713,33.5527944 C13.1548139,33.8426416 13.6263545,34.000367 14.1122487,34 L32.8855174,34 C33.3714116,34.000367 33.8429522,33.8426416 34.2224948,33.5527944 L34.377549,33.4046578 C34.7322446,33.0678422 34.9517719,32.6226538 34.9977661,32.1468939 C35.0007446,32.1031513 35.0007446,32.05927 34.9977661,32.0155275 L34.9977661,31.8673908 C34.9846841,31.3499704 34.7648658,30.8569438 34.3834001,30.4894406 L34.3834001,30.4894406 Z" id="Path" fill="#FFFFFF" opacity="0.35"></path>
            <path d="M34.9989087,16.5567216 C35.0176086,15.8929778 34.7954486,15.2447603 34.3731576,14.7309079 L34.2181818,14.5474529 C33.8592276,14.2018218 33.3811478,14.0059631 32.8818814,14 L14.1181186,14 C13.6188522,14.0059631 13.1407724,14.2018218 12.7818182,14.5474529 L12.6268424,14.7309079 C12.2045514,15.2447603 11.9823914,15.8929778 12.0010913,16.5567216 L12.0010913,16.5567216 L12.0010913,16.5916654 C12.0112395,17.2125664 12.2317475,17.8118391 12.6268424,18.2922639 L18.3697176,25.0189461 L21.9809452,29.2617062 C22.3461092,29.7276383 22.906499,30 23.5,30 C24.093501,30 24.6538908,29.7276383 25.0190548,29.2617062 L28.6273583,25.0189461 L34.3673094,18.2922639 C34.7648623,17.8132401 34.9856973,17.2130786 34.9930606,16.5916654 L34.9930606,16.5567216 L34.9989087,16.5567216 Z M24.4576332,21.7313165 L24.4576332,24.3812217 C24.4576332,24.844396 24.0805977,25.2198729 23.6155008,25.2198729 L23.3844992,25.2198729 C22.9194023,25.2198729 22.5423668,24.844396 22.5423668,24.3812217 L22.5423668,21.7313165 C22.3537951,21.6460703 22.1785075,21.5342716 22.0218822,21.3993504 C21.3352067,20.7887947 21.0982857,19.8194694 21.4263765,18.9629323 C21.7544673,18.1063952 22.5794552,17.5404712 23.5,17.5404712 C24.4205448,17.5404712 25.2455327,18.1063952 25.5736235,18.9629323 C25.9017143,19.8194694 25.6647933,20.7887947 24.9781178,21.3993504 C24.8214925,21.5342716 24.6462049,21.6460703 24.4576332,21.7313165 Z" id="Shape" fill="#FFFFFF" opacity="0.7"></path>
        </g>
    </g>
</svg>
