<svg id="b97043a1-4f33-4ab2-9cc9-782d986c9403" data-name="Ebene 1" xmlns="http://www.w3.org/2000/svg" viewBox="0 0 1536 1536"><defs><style>.a1e80f89-bda4-47bd-bf7b-f7778e493ac3{fill:#0cc;}.a1c6d044-2370-4d93-bae0-67dcf391f6c3{fill:#e1007a;}.ffe08307-2d97-40dc-85e1-8dd290829ff7{fill:#00006b;}</style></defs><path class="a1e80f89-bda4-47bd-bf7b-f7778e493ac3" d="M768,768c96.09-96.09,251.88-96.09,348,0l348-348c96.09-96.09,96.09-251.89,0-348s-251.88-96.09-348,0L768,420l-348-348C324-24,168.16-24,72.07,72.07S-24,324,72.07,420L420,768c96.09-96.09,251.88-96.09,348,0"/><path class="a1c6d044-2370-4d93-bae0-67dcf391f6c3" d="M1116,768h0L768,1116h0l348,348a246,246,0,0,0,348,0c96.08-96.08,96.08-251.87,0-348L1116,768"/><path class="a1c6d044-2370-4d93-bae0-67dcf391f6c3" d="M420,768l-348,348c-96.08,96.09-96.08,251.88,0,348a246,246,0,0,0,348,0l348-348L420.05,768l0,0"/><path class="ffe08307-2d97-40dc-85e1-8dd290829ff7" d="M942,695.93A245.32,245.32,0,0,0,768,768h0a246,246,0,0,0-348,0h0l0,0,348,348,348-348A245.33,245.33,0,0,0,942,695.93Z"/></svg>