<?xml version="1.0" encoding="UTF-8"?>
<svg fill="#fff" width="300px" height="300px" viewBox="0 0 420 420" version="1.1" xmlns="http://www.w3.org/2000/svg" xmlns:xlink="http://www.w3.org/1999/xlink">
    <g id="Symbols" stroke="none" stroke-width="1" fill="none" fill-rule="evenodd">
        <g id="elements/picture/main_picture_passion_alert_v2">
            <circle cx="210" cy="210" r="210" fill="#ffffff" />
            <g id="Group-13" transform="translate(60,110)">
                <g id="Group-3">
                    <path d="M45.316128,206.400362 C43.672288,206.400362 42.030208,205.755815 40.775328,204.464909 C14.479168,177.415646 -0.000352,141.451352 -0.000352,103.200362 C-0.000352,64.9493726 14.479168,28.9832674 40.775328,1.93581474 C43.283328,-0.644185263 47.347168,-0.644185263 49.856928,1.93581474 C52.364928,4.51400421 52.364928,8.69994105 49.856928,11.2781305 C0.585728,61.9638147 0.585728,144.436909 49.856928,195.122594 C52.364928,197.700783 52.364928,201.884909 49.856928,204.464909 C48.602048,205.755815 46.959968,206.400362 45.316128,206.400362" id="Fill-1" fill="#1ED7DC"></path>
                </g>
                <path d="M84.5631198,168 C82.8622885,168 81.1650954,167.355397 79.8699169,166.064381 C45.3766944,131.732036 45.3766944,75.8688694 79.8699169,41.5365246 C82.4620929,38.9544918 86.6623276,38.9544918 89.2545037,41.5365246 C91.8484988,44.114936 91.8484988,48.2994225 89.2545037,50.877834 C59.940176,80.0605986 59.940176,127.538496 89.2545037,156.721261 C91.8484988,159.299672 91.8484988,163.485969 89.2545037,166.064381 C87.9593252,167.355397 86.262132,168 84.5631198,168" id="Fill-4" fill="#1ED7DC"></path>
                <g id="Group-8" transform="translate(247.200000, 0.000000)">
                    <path d="M6.706128,206.400362 C5.062288,206.400362 3.420208,205.755815 2.165328,204.464909 C-0.342672,201.884909 -0.342672,197.700783 2.165328,195.122594 C51.436528,144.436909 51.436528,61.9638147 2.165328,11.2781305 C-0.342672,8.69994105 -0.342672,4.51400421 2.165328,1.93581474 C4.675088,-0.644185263 8.737168,-0.644185263 11.246928,1.93581474 C37.543088,28.9832674 52.022608,64.9493726 52.022608,103.200362 C52.022608,141.451352 37.543088,177.415646 11.246928,204.464909 C9.992048,205.755815 8.349968,206.400362 6.706128,206.400362" id="Fill-6" fill="#1ED7DC"></path>
                </g>
                <path d="M215.437254,168 C213.738262,168 212.04109,167.355397 210.744108,166.064381 C208.151964,163.485969 208.151964,159.299672 210.744108,156.721261 C240.059897,127.538496 240.059897,80.0605986 210.744108,50.877834 C208.151964,48.2994225 208.151964,44.114936 210.744108,41.5365246 C213.338072,38.9544918 217.538255,38.9544918 220.130399,41.5365246 C254.6232,75.8688694 254.6232,131.732036 220.130399,166.064381 C218.833418,167.355397 217.136245,168 215.437254,168" id="Fill-9" fill="#1ED7DC"></path>
                <path d="M194.822753,71.6009032 L194.822753,71.6009032 C185.786423,62.5348561 171.136699,62.5330323 162.10037,71.6009032 L154.685526,79.040132 L150.600909,83.1381823 L146.516292,79.040132 L146.516292,79.040132 L139.09963,71.6009032 C130.065119,62.5330323 115.411759,62.5330323 106.377247,71.6009032 L106.377247,71.6009032 C97.3409176,80.6651266 97.3409176,95.364853 106.377247,104.429076 L113.792091,111.871953 L117.876708,115.968179 L137.974406,136.130149 L150.600909,148.8 L163.227411,136.130149 L183.323292,115.968179 L187.407909,111.871953 L187.407909,111.870129 L194.822753,104.429076 C203.859082,95.364853 203.859082,80.6669504 194.822753,71.6009032" id="Fill-11" fill="#E1007A"></path>
            </g>
        </g>
    </g>
</svg>
