<svg xmlns="http://www.w3.org/2000/svg" viewBox="0 0 163 163"><defs><style>.fdb8ae98-8a40-4eba-8874-2c935b5f1bc6{fill:#002d91;}.b90a3a4b-aeba-4987-bc2c-7fa270e7e623{fill:none;}.ba67f5cb-ff71-433f-a98d-da1327235730,.bbdab76f-6b86-4676-8865-9a3ae002f933{fill:#fff;}.ba67f5cb-ff71-433f-a98d-da1327235730{opacity:0.35;}</style></defs><g id="f429b1ae-c0a6-4f90-8085-74eb8fe9bd8d" data-name="elements"><path class="fdb8ae98-8a40-4eba-8874-2c935b5f1bc6" d="M118.45,105.2v-.47c0,.16,0,.32,0,.47Z"/><path class="b90a3a4b-aeba-4987-bc2c-7fa270e7e623" d="M110.52,47.39,91.61,58.3v43.94l18.91,10.92a5.27,5.27,0,0,0,7.9-4.57V52A5.26,5.26,0,0,0,110.52,47.39Z"/><path class="bbdab76f-6b86-4676-8865-9a3ae002f933" d="M61.46,75.71,91.61,58.3V52a5.26,5.26,0,0,0-7.9-4.56l-49,28.32a5.26,5.26,0,0,0,0,9.12l49.05,28.33a5.27,5.27,0,0,0,7.9-4.57v-6.35L61.46,84.83A5.27,5.27,0,0,1,61.46,75.71Z"/><path class="ba67f5cb-ff71-433f-a98d-da1327235730" d="M81.5,0A81.5,81.5,0,1,0,163,81.5,81.5,81.5,0,0,0,81.5,0Zm36.92,108.59a5.27,5.27,0,0,1-7.9,4.57L91.61,102.24V58.3l18.91-10.91a5.26,5.26,0,0,1,7.9,4.56Z"/><path class="ba67f5cb-ff71-433f-a98d-da1327235730" d="M61.46,75.71a5.27,5.27,0,0,0,0,9.12l30.15,17.41V58.3Z"/></g></svg>