<?xml version="1.0" encoding="UTF-8"?>
<svg width="16px" height="22px" viewBox="0 0 16 22" version="1.1" xmlns="http://www.w3.org/2000/svg" xmlns:xlink="http://www.w3.org/1999/xlink">
    <!-- Generator: Sketch 58 (84663) - https://sketch.com -->
    <title>MatchApp_ic_place</title>
    <desc>Created with Sketch.</desc>
    <defs>
        <path d="M20,149 C16.13,149 13,152.13 13,156 C13,161.25 20,169 20,169 C20,169 27,161.25 27,156 C27,152.13 23.87,149 20,149 L20,149 Z M20,158.5 C18.62,158.5 17.5,157.38 17.5,156 C17.5,154.62 18.62,153.5 20,153.5 C21.38,153.5 22.5,154.62 22.5,156 C22.5,157.38 21.38,158.5 20,158.5 L20,158.5 Z" id="path-1"></path>
        <filter x="-7.1%" y="-5.0%" width="128.6%" height="120.0%" filterUnits="objectBoundingBox" id="filter-2">
            <feOffset dx="1" dy="1" in="SourceAlpha" result="shadowOffsetOuter1"></feOffset>
            <feGaussianBlur stdDeviation="0.5" in="shadowOffsetOuter1" result="shadowBlurOuter1"></feGaussianBlur>
            <feColorMatrix values="0 0 0 0 0   0 0 0 0 0   0 0 0 0 0  0 0 0 0.5 0" type="matrix" in="shadowBlurOuter1"></feColorMatrix>
        </filter>
    </defs>
    <g id="Symbols" stroke="none" stroke-width="1" fill="none" fill-rule="evenodd">
        <g id="elements/name+describe_v3b" transform="translate(-13.000000, -149.000000)">
            <g id="ic_place">
                <use fill="black" fill-opacity="1" filter="url(#filter-2)" xlink:href="#path-1"></use>
                <use fill="#FFFFFF" fill-rule="evenodd" xlink:href="#path-1"></use>
            </g>
        </g>
    </g>
</svg>