<?xml version="1.0" encoding="UTF-8"?>
<svg width="96px" height="96px" viewBox="0 0 96 96" version="1.1" xmlns="http://www.w3.org/2000/svg" xmlns:xlink="http://www.w3.org/1999/xlink">
    <title>odxc_Group</title>
    <g id="MatchApp-Video-Call" stroke="none" stroke-width="1" fill="none" fill-rule="evenodd">
        <g id="MatchApp-Video-make-Call-" transform="translate(-140.000000, -525.000000)">
            <g id="Group" transform="translate(140.000000, 525.000000)">
                <circle id="Oval" fill="#E1007A" opacity="0.8" cx="48" cy="48" r="48"></circle>
                <g id="phone" transform="translate(18.000000, 36.000000)" fill="#FFFFFF" fill-rule="nonzero">
                    <path d="M8.02720968,23.8480692 L18.1544407,19.7872771 C19.0413767,19.4290637 19.5853977,18.5262444 19.489044,17.5724627 L18.7935465,10.5798236 C26.0432054,7.96837966 33.9734577,7.96837966 41.2231165,10.5798236 L40.526724,17.5724627 C40.4305028,18.5264741 40.9749332,19.4293672 41.8622223,19.7872771 L51.9894534,23.8480692 C52.9562482,24.2283494 54.0561584,23.8659168 54.6094291,22.9847583 L59.6730446,14.863174 C60.203716,14.0125335 60.078247,12.9071979 59.3704987,12.1978585 C43.1350633,-4.0785142 16.8431102,-4.05338664 0.63005242,12.1978585 C-0.0779865447,12.906975 -0.203829236,14.0123315 0.326611433,14.863174 L5.39022695,22.9856557 C5.94785508,23.8694672 7.05314236,24.231438 8.02362926,23.8480692 L8.02720968,23.8480692 Z" id="Path"></path>
                </g>
            </g>
        </g>
    </g>
</svg>