<?xml version="1.0" encoding="UTF-8"?>
<svg width="34px" height="34px" viewBox="0 0 34 34" version="1.1" xmlns="http://www.w3.org/2000/svg" xmlns:xlink="http://www.w3.org/1999/xlink">
    <title>matchapp_Group 12</title>
    <defs>
        <polygon id="path-1" points="0 0.0315342342 33.9997991 0.0315342342 33.9997991 18.4593045 0 18.4593045"></polygon>
        <polygon id="path-3" points="0 0.0808495495 33.9999845 0.0808495495 33.9999845 16.9276198 0 16.9276198"></polygon>
    </defs>
    <g id="Symbols" stroke="none" stroke-width="1" fill="none" fill-rule="evenodd">
        <g id="Group-12">
            <g id="Group-10" transform="translate(0.000000, 15.315315)">
                <mask id="mask-2" fill="white">
                    <use xlink:href="#path-1"></use>
                </mask>
                <g id="Clip-9"></g>
                <path d="M32.4046582,9.24545766 L24.7024218,1.6123045 L24.7024218,1.6123045 C22.5755673,-0.495389189 19.1267309,-0.495389189 16.9998764,1.6123045 C14.8730218,-0.495389189 11.4244945,-0.495389189 9.29764,1.6123045 L9.29764,1.6123045 L1.59509455,9.24545766 C-0.53176,11.3531514 -0.53176,14.7706108 1.59509455,16.8783045 C3.72225818,18.9863045 7.17078545,18.9863045 9.29764,16.8783045 L16.9998764,9.24545766 L24.7024218,16.8783045 C26.8289673,18.9863045 30.2778036,18.9863045 32.4046582,16.8783045 C34.5315127,14.7706108 34.5315127,11.3531514 32.4046582,9.24545766" id="Fill-8" fill="#C8C8C8" mask="url(#mask-2)"></path>
            </g>
            <g id="Group-13">
                <mask id="mask-4" fill="white">
                    <use xlink:href="#path-3"></use>
                </mask>
                <g id="Clip-12"></g>
                <path d="M17.0000618,16.9276198 L17.0000618,16.9276198 C19.1269164,14.8199261 22.5754436,14.8199261 24.7022982,16.9276198 L32.4048436,9.29477297 C34.5316982,7.18677297 34.5316982,3.76931351 32.4048436,1.66161982 C30.2779891,-0.446073874 26.8291527,-0.446073874 24.7022982,1.66161982 L17.0000618,9.29477297 L9.29751636,1.66161982 C7.17066182,-0.446073874 3.72213455,-0.446073874 1.59528,1.66161982 C-0.531883636,3.76931351 -0.531883636,7.18677297 1.59528,9.29477297 L9.29751636,16.9276198 C11.4243709,14.8199261 14.8732073,14.8199261 17.0000618,16.9276198" id="Fill-11" fill="#D7D7D7" mask="url(#mask-4)"></path>
            </g>
            <path d="M16.9999073,16.9276198 L16.9999073,16.9276198 C14.8730527,14.8199261 11.4245255,14.8199261 9.29767091,16.9276198 L9.29767091,16.9276198 C9.29767091,16.9276198 9.29798,16.9279261 9.29798,16.9279261 L16.9999073,24.5604667 L24.7024527,16.9276198 C22.5755982,14.8199261 19.1267618,14.8199261 16.9999073,16.9276198" id="Fill-14" fill="#9B9B9B"></path>
        </g>
    </g>
</svg>