<?xml version="1.0" encoding="UTF-8"?>
<svg width="53px" height="35px" viewBox="0 0 53 35" version="1.1" xmlns="http://www.w3.org/2000/svg" xmlns:xlink="http://www.w3.org/1999/xlink">
    <title>matchapp_Group 14</title>
    <defs>
        <polygon id="path-1" points="0.0446642857 0.0483963964 34.6166167 0.0483963964 34.6166167 19.2903441 0.0446642857 19.2903441"></polygon>
    </defs>
    <g id="Symbols" stroke="none" stroke-width="1" fill="none" fill-rule="evenodd">
        <g id="elements/icon/chat_inactive" transform="translate(0.000000, 1.000000)">
            <g id="Group-14" transform="translate(0.298600, -0.158000)">
                <path d="M23.420119,26.2313982 C22.6175238,26.2313982 21.9669048,25.5875423 21.9669048,24.7935964 C21.9669048,23.9993441 22.6175238,23.3557946 23.420119,23.3557946 C24.2224048,23.3557946 24.8727143,23.9993441 24.8727143,24.7935964 C24.8727143,25.5875423 24.2224048,26.2313982 23.420119,26.2313982 L23.420119,26.2313982 Z M17.2856667,26.2313982 C16.4836905,26.2313982 15.8330714,25.5875423 15.8330714,24.7935964 C15.8330714,23.9993441 16.4836905,23.3557946 17.2856667,23.3557946 C18.0882619,23.3557946 18.738881,23.9993441 18.738881,24.7935964 C18.738881,25.5875423 18.0882619,26.2313982 17.2856667,26.2313982 L17.2856667,26.2313982 Z M11.1518333,26.2313982 C10.3495476,26.2313982 9.69892857,25.5875423 9.69892857,24.7935964 C9.69892857,23.9993441 10.3495476,23.3557946 11.1518333,23.3557946 C11.954119,23.3557946 12.6044286,23.9993441 12.6044286,24.7935964 C12.6044286,25.5875423 11.954119,26.2313982 11.1518333,26.2313982 L11.1518333,26.2313982 Z M17.2856667,19.2904973 L17.2856667,14.500173 L16.8430476,14.500173 L9.72214286,14.500173 C4.35283333,14.500173 -1.14363545e-13,18.8077586 -1.14363545e-13,24.1209477 L-1.14363545e-13,24.1212541 C-1.14363545e-13,29.4347495 4.35283333,33.7420288 9.72183333,33.7420288 L16.8430476,33.7420288 L16.8430476,33.7420288 L20.2317143,33.7420288 L20.2320238,33.7420288 L34.5716429,33.7420288 L34.5716429,24.1209477 C34.5716429,22.3514162 34.0544286,20.7148216 33.2122143,19.2904973 L31.6255952,19.2904973 L17.2856667,19.2904973 Z" id="Fill-1" fill="#C8C8C8"></path>
                <g id="Group-5" transform="translate(17.240910, 0.000000)">
                    <mask id="mask-2" fill="white">
                        <use xlink:href="#path-1"></use>
                    </mask>
                    <g id="Clip-4"></g>
                    <path d="M23.4650929,11.1070649 C22.6624976,11.1070649 22.0118786,10.4635153 22.0118786,9.66926306 C22.0118786,8.87531712 22.6624976,8.23176757 23.4650929,8.23176757 C24.2673786,8.23176757 24.9176881,8.87531712 24.9176881,9.66926306 C24.9176881,10.4635153 24.2673786,11.1070649 23.4650929,11.1070649 M17.3306405,11.1070649 C16.5283548,11.1070649 15.8780452,10.4635153 15.8780452,9.66926306 C15.8780452,8.87531712 16.5283548,8.23176757 17.3306405,8.23176757 C18.1332357,8.23176757 18.7838548,8.87531712 18.7838548,9.66926306 C18.7838548,10.4635153 18.1332357,11.1070649 17.3306405,11.1070649 M11.1968071,11.1070649 C10.3942119,11.1070649 9.74390238,10.4635153 9.74390238,9.66926306 C9.74390238,8.87531712 10.3942119,8.23176757 11.1968071,8.23176757 C11.9990929,8.23176757 12.6494024,8.87531712 12.6494024,9.66926306 C12.6494024,10.4635153 11.9990929,11.1070649 11.1968071,11.1070649 M24.8944738,0.0484882883 L17.7738786,0.048181982 L9.76680714,0.048181982 C4.39780714,0.0484882883 0.0446642857,4.35576757 0.0446642857,9.66926306 L0.0446642857,9.66926306 L0.0446642857,14.5000198 L7.60880714,14.5000198 C11.1899976,14.5003261 14.2846167,16.4377135 15.9712119,19.2903441 L17.7738786,19.2903441 L17.7738786,19.2900378 L24.8944738,19.2900378 C30.2637833,19.2900378 34.6166167,14.9827586 34.6166167,9.66956937 L34.6166167,9.66926306 C34.6166167,4.35576757 30.2637833,0.048181982 24.8944738,0.0484882883" id="Fill-3" fill="#D7D7D7" mask="url(#mask-2)"></path>
                </g>
                <path d="M24.8498405,14.5000505 L17.2856976,14.5000505 L17.2856976,19.2903748 L31.6256262,19.2903748 L33.2122452,19.2903748 C31.5253405,16.4377441 28.4307214,14.5000505 24.8498405,14.5000505" id="Fill-6" fill="#9B9B9B"></path>
            </g>
        </g>
    </g>
</svg>