<svg width="55" height="55" viewBox="0 0 55 55" fill="none" xmlns="http://www.w3.org/2000/svg">
<path d="M27.5 52C41.031 52 52 41.031 52 27.5C52 13.969 41.031 3 27.5 3C13.969 3 3 13.969 3 27.5C3 41.031 13.969 52 27.5 52Z" fill="#E1007A"/>
<g clip-path="url(#clip0)">
<path d="M18.6146 38.4937L25.4681 34.419C25.4721 34.415 25.4761 34.415 25.4782 34.413C25.878 34.2232 26.2495 33.9687 26.5787 33.6396L37.4826 22.7356C39.0415 21.1768 39.0413 18.6405 37.4823 17.0814C35.9232 15.5224 33.3869 15.5222 31.828 17.0811L20.9241 27.985C20.5889 28.3202 20.3304 28.7039 20.1386 29.1098L16.07 35.9491C15.5551 36.8154 15.6077 37.7605 16.2054 38.3583C16.8032 38.956 17.7483 39.0086 18.6146 38.4937ZM36.0688 18.4949C36.8483 19.2744 36.8484 20.5426 36.069 21.322C35.2895 22.1014 34.0214 22.1014 33.2419 21.3218C32.4623 20.5423 32.4623 19.2741 33.2417 18.4947C34.0211 17.7153 35.2893 17.7154 36.0688 18.4949ZM30.7964 20.94C30.9701 21.5983 31.3134 22.2203 31.8284 22.7353C32.3434 23.2503 32.9674 23.5916 33.6237 23.7673L25.165 32.226C24.9914 32.3996 24.7955 32.5309 24.5855 32.6278L24.5835 32.6258C23.9252 32.9246 23.1618 32.8438 22.5883 32.4358C22.5762 32.4277 22.5641 32.4197 22.552 32.4075C22.4773 32.353 22.4045 32.2924 22.3379 32.2258C22.2713 32.1591 22.2107 32.0864 22.1541 32.0097C22.1461 31.9976 22.138 31.9855 22.1259 31.9734C21.7199 31.4018 21.6371 30.6365 21.9359 29.9782L21.9339 29.9762C22.0328 29.7682 22.1641 29.5723 22.3377 29.3987L30.7964 20.94ZM20.2762 32.785C20.2943 32.8153 20.3125 32.8456 20.3307 32.8759C20.3751 32.9486 20.4196 33.0213 20.47 33.092C20.5165 33.1586 20.565 33.2233 20.6134 33.2879C20.6356 33.3182 20.6619 33.3485 20.6881 33.3788C20.7629 33.4656 20.8396 33.5544 20.9244 33.6393C21.0092 33.7241 21.0981 33.8008 21.187 33.8776C21.2173 33.9038 21.2475 33.926 21.2778 33.9523C21.3404 34.0028 21.4071 34.0492 21.4737 34.0957C21.5444 34.1462 21.6171 34.1906 21.6898 34.235C21.7201 34.2532 21.7484 34.2734 21.7807 34.2896L18.0773 36.4864L20.2762 32.785Z" fill="white"/>
</g>
<defs>
<clipPath id="clip0">
<rect width="30.09" height="7.99678" fill="white" transform="translate(40.3096 19.9087) rotate(135)"/>
</clipPath>
</defs>
</svg>
