<svg width="55" height="55" viewBox="0 0 55 55" fill="none" xmlns="http://www.w3.org/2000/svg">
<path d="M27.5 52C41.031 52 52 41.031 52 27.5C52 13.969 41.031 3 27.5 3C13.969 3 3 13.969 3 27.5C3 41.031 13.969 52 27.5 52Z" fill="#1ED7DC"/>
<path d="M17.81 22.6175C19.6081 22.6175 21.1084 21.3996 21.5302 19.7204H39.4134C39.8793 19.7204 40.2876 19.3425 40.2876 18.8462C40.2876 18.3802 39.9097 17.9719 39.4134 17.9719H21.5853C21.2341 16.2159 19.6839 14.875 17.81 14.875C15.693 14.875 13.9637 16.6043 13.9637 18.7213C13.9637 20.8871 15.6919 22.6175 17.81 22.6175ZM17.81 16.6485C18.9897 16.6485 19.9328 17.5915 19.9328 18.7713C19.9328 19.951 18.9897 20.894 17.81 20.894C16.6303 20.894 15.6873 19.951 15.6873 18.7713C15.6873 17.5915 16.6303 16.6485 17.81 16.6485Z" fill="white" stroke="white" stroke-width="0.25"/>
<path d="M17.81 40.2003C19.6081 40.2003 21.1084 38.9823 21.5302 37.3032H39.4134C39.8793 37.3032 40.2876 36.9252 40.2876 36.4289C40.2876 35.963 39.9097 35.5547 39.4134 35.5547H21.5853C21.2341 33.7987 19.6839 32.4578 17.81 32.4578C15.693 32.4578 13.9637 34.1871 13.9637 36.304C13.9637 38.4699 15.6919 40.2003 17.81 40.2003ZM17.81 34.2313C18.9897 34.2313 19.9328 35.1743 19.9328 36.354C19.9328 37.5337 18.9897 38.4768 17.81 38.4768C16.6303 38.4768 15.6873 37.5337 15.6873 36.354C15.6873 35.1743 16.6303 34.2313 17.81 34.2313Z" fill="white" stroke="white" stroke-width="0.25"/>
<path d="M37.4415 23.6287C35.6434 23.6287 34.1431 24.8466 33.7213 26.5258L15.8381 26.5258C15.3722 26.5258 14.9638 26.9038 14.9638 27.4001C14.9638 27.866 15.3418 28.2743 15.8381 28.2743L33.6662 28.2743C34.0174 30.0303 35.5676 31.3712 37.4415 31.3712C39.5584 31.3712 41.2877 29.6419 41.2877 27.5249C41.2877 25.3591 39.5595 23.6287 37.4415 23.6287ZM37.4415 29.5977C36.2617 29.5977 35.3187 28.6547 35.3187 27.475C35.3187 26.2952 36.2617 25.3522 37.4415 25.3522C38.6212 25.3522 39.5642 26.2952 39.5642 27.475C39.5642 28.6547 38.6212 29.5977 37.4415 29.5977Z" fill="white" stroke="white" stroke-width="0.25"/>
</svg>
