<svg width="20" height="18" viewBox="0 0 20 18" fill="none" xmlns="http://www.w3.org/2000/svg">
<path d="M6.21299 9.64672L1.46408 4.04972C1.12487 3.66205 0.955238 3.15323 0.955238 2.64441V15.6071C0.979468 15.171 1.1491 14.7348 1.46408 14.3956L6.21299 9.64672Z" fill="#002D91"/>
<path d="M14.7174 9.64672L19.4663 14.3956C19.8056 14.7348 19.9752 15.171 19.9752 15.6071V2.64441C19.951 3.15323 19.7813 3.66205 19.4663 4.04972L14.7174 9.64672Z" fill="#002D91"/>
<path d="M19.4907 14.3955L14.7417 9.64661L11.7373 13.1599C11.0346 13.9837 9.92011 13.9837 9.21746 13.1599L6.21299 9.64661L1.46408 14.3955C1.12487 14.7347 0.955238 15.1709 0.955238 15.607V15.7281C0.955238 15.7766 0.955238 15.8008 0.955238 15.8493C1.0037 16.2369 1.17333 16.6246 1.46408 16.9396L1.58522 17.0607C1.90021 17.303 2.26361 17.4484 2.69974 17.4484H18.255C18.6669 17.4484 19.0545 17.303 19.3695 17.0607L19.4907 16.9396C19.8057 16.6246 19.9753 16.2369 19.9995 15.8493C19.9995 15.8008 19.9995 15.7766 19.9995 15.7281V15.607C19.9753 15.1709 19.8057 14.7347 19.4907 14.3955Z" fill="#E1007A"/>
<path d="M20.0009 2.59582C20.0009 2.03854 19.8313 1.50548 19.4921 1.06936L19.3709 0.924016C19.0559 0.633264 18.6925 0.463623 18.2564 0.463623H2.70114C2.28924 0.463623 1.90161 0.633264 1.58663 0.924016L1.46548 1.06936C1.10204 1.48125 0.932411 2.03854 0.95664 2.59582V2.62007C0.980869 3.12888 1.1505 3.63765 1.46548 4.02532L6.21439 9.62232L9.21886 13.1356C9.92151 13.9594 11.036 13.9594 11.7387 13.1356L14.7431 9.62232L19.4921 4.02532C19.8313 3.63765 20.0009 3.12888 20.0009 2.62007V2.59582ZM11.2541 6.90865V9.11348C11.2541 9.50115 10.9391 9.81616 10.5515 9.81616H10.3576C9.96996 9.81616 9.65494 9.50115 9.65494 9.11348V6.90865C9.48534 6.83596 9.36424 6.73905 9.21886 6.61791C8.85542 6.2787 8.61313 5.79409 8.61313 5.26104C8.61313 4.24341 9.43689 3.41959 10.4545 3.41959C11.4722 3.41959 12.296 4.24341 12.296 5.26104C12.296 5.79409 12.0537 6.30293 11.6902 6.61791C11.5691 6.73905 11.4237 6.83596 11.2541 6.90865Z" fill="#1ED7DC"/>
<path d="M10.4774 3.41968C9.45973 3.41968 8.63591 4.2435 8.63591 5.26113C8.63591 5.79418 8.8782 6.30301 9.24164 6.618C9.36279 6.73914 9.50818 6.83605 9.67778 6.90874V9.11357C9.67778 9.50124 9.99274 9.81626 10.3804 9.81626H10.5743C10.9619 9.81626 11.2769 9.50124 11.2769 9.11357V6.90874C11.4465 6.83605 11.5676 6.73914 11.713 6.618C12.0765 6.27879 12.3188 5.79418 12.3188 5.26113C12.3188 4.2435 11.495 3.41968 10.4774 3.41968Z" fill="#002D91"/>
</svg>
