<?xml version="1.0" encoding="UTF-8"?>
<svg width="29px" height="16px" viewBox="0 0 29 16" version="1.1" xmlns="http://www.w3.org/2000/svg" xmlns:xlink="http://www.w3.org/1999/xlink">
    <defs>
        <polygon id="path-1" points="0 0 29 0 29 16 0 16"></polygon>
    </defs>
    <g id="Symbols" stroke="none" stroke-width="1" fill="none" fill-rule="evenodd">
        <g id="Group-3">
            <mask id="mask-2" fill="white">
                <use xlink:href="#path-1"></use>
            </mask>
            <path d="M28.0027853,7.00191827 L3.81767019,7.00191827 L9.11088569,1.70387968 C9.50046422,1.31394617 9.50046422,0.682134112 9.11088569,0.292200602 C8.72197196,-0.0974002007 8.09007026,-0.0974002007 7.70082413,0.292200602 L0,8.00004159 L7.70082413,15.7078826 C7.8956134,15.9025166 8.15090036,16 8.40585491,16 C8.66114187,16 8.91642883,15.9025166 9.11088569,15.7078826 C9.50046422,15.3179491 9.50046422,14.686137 9.11088569,14.2962035 L3.81767019,8.99816491 L28.0027853,8.99816491 C28.5535802,8.99816491 29,8.55133837 29,8.00004159 C29,7.44874481 28.5535802,7.00191827 28.0027853,7.00191827" id="Fill-1" fill="#FFFFFF" mask="url(#mask-2)"></path>
        </g>
    </g>
</svg>
