<svg width="55" height="55" viewBox="0 0 55 55" fill="none" xmlns="http://www.w3.org/2000/svg">
<path d="M27.5 52C41.031 52 52 41.031 52 27.5C52 13.969 41.031 3 27.5 3C13.969 3 3 13.969 3 27.5C3 41.031 13.969 52 27.5 52Z" fill="#002D91"/>
<path d="M44.5229 26.8966L44.5233 26.8977C44.6055 27.0876 44.648 27.2927 44.648 27.5C44.648 27.7073 44.6055 27.9123 44.5233 28.1022L44.5229 28.1033C41.0367 36.2654 34.5026 41.2806 27.5 41.2806C20.4974 41.2806 13.9633 36.2654 10.4772 28.1033L10.4767 28.1022C10.3945 27.9123 10.3521 27.7073 10.3521 27.5C10.3521 27.2927 10.3945 27.0876 10.4767 26.8977L10.4772 26.8966C13.9633 18.7345 20.4974 13.7194 27.5 13.7194C34.5026 13.7194 41.0367 18.7345 44.5229 26.8966ZM13.5335 27.395L13.485 27.5L13.5335 27.6049C16.568 34.1672 21.8403 38.2729 27.5 38.2729C33.1597 38.2729 38.432 34.1672 41.4665 27.6049L41.515 27.5L41.4665 27.395C38.432 20.8328 33.1597 16.727 27.5 16.727C21.8403 16.727 16.568 20.8328 13.5335 27.395ZM23.7747 21.8743C24.8776 21.1312 26.174 20.7347 27.5 20.7347C29.2781 20.7347 30.9837 21.4469 32.2417 22.7154C33.4997 23.984 34.2068 25.705 34.2068 27.5C34.2068 28.8385 33.8132 30.1468 33.0759 31.2594C32.3387 32.372 31.2912 33.2388 30.0659 33.7506C28.8406 34.2624 27.4926 34.3962 26.192 34.1354C24.8914 33.8745 23.6964 33.2305 22.7584 32.2845C21.8202 31.3385 21.1811 30.133 20.9222 28.8202C20.6633 27.5075 20.7962 26.1468 21.3041 24.9103C21.8119 23.6739 22.6718 22.6174 23.7747 21.8743ZM25.4278 30.6238C26.041 31.037 26.7621 31.2576 27.5 31.2576C28.4895 31.2576 29.4381 30.8612 30.1371 30.1563C30.8361 29.4514 31.2284 28.4959 31.2284 27.5C31.2284 26.7572 31.01 26.031 30.6006 25.4131C30.1912 24.7952 29.609 24.3133 28.9275 24.0286C28.246 23.744 27.4959 23.6694 26.7722 23.8146C26.0486 23.9598 25.3842 24.318 24.8629 24.8437C24.3416 25.3693 23.9869 26.0388 23.8432 26.7673C23.6995 27.4958 23.7732 28.2509 24.0552 28.9373C24.3371 29.6237 24.8147 30.2107 25.4278 30.6238Z" fill="white" stroke="#002D91" stroke-width="0.5"/>
</svg>
