<svg width="178" height="178" viewBox="0 0 178 178" fill="none" xmlns="http://www.w3.org/2000/svg">
    <path opacity="0.35" d="M89 178C138.153 178 178 138.153 178 89C178 39.8467 138.153 0 89 0C39.8467 0 0 39.8467 0 89C0 138.153 39.8467 178 89 178Z" fill="white"/>
    <path d="M82.7856 120.8H95.8856C107.286 120.8 115.886 110.6 114.086 99.4001L110.486 77.5C103.386 71.3 93.6856 68.3001 83.6856 70.1001C77.6856 71.2001 72.4856 73.8 68.1856 77.5L64.5856 99.4001C62.6856 110.6 71.3856 120.8 82.7856 120.8Z" fill="#002D91"/>
    <path d="M110.386 77.5L107.486 59.5C105.986 50.6 98.2856 44 89.2856 44C80.2856 44 72.5856 50.5 71.0856 59.5L68.1855 77.5C72.4855 73.8 77.6855 71.1001 83.6855 70.1001C93.5855 68.3001 103.286 71.3 110.386 77.5Z" fill="#1ED7DC"/>
    <path d="M120.986 96.2002C119.686 88.7002 115.786 82.2 110.386 77.5L113.986 99.4001C115.786 110.6 107.186 120.8 95.7858 120.8H82.6858C71.2858 120.8 62.6858 110.6 64.4858 99.4001L68.0858 77.5C59.7858 84.7 55.4858 95.9 57.4858 107.5C60.5858 125 77.3858 136.7 94.8858 133.6C112.486 130.4 124.086 113.7 120.986 96.2002Z" fill="#E1007A"/>
    <path d="M93.1855 96.4001C95.5855 94.9001 97.1855 92.3002 97.1855 89.2002C97.1855 84.5002 93.3855 80.7002 88.6855 80.7002C83.9855 80.7002 80.1855 84.5002 80.1855 89.2002C80.1855 92.1002 81.5856 94.6001 83.7856 96.1001L81.7856 109.3C81.5856 110.7 82.6856 112 84.0856 112H92.7856C94.1856 112 95.2856 110.7 95.0856 109.3L93.1855 96.4001Z" fill="white"/>
</svg>
